<?xml version="1.0" standalone="no"?>
<!DOCTYPE svg PUBLIC "-//W3C//DTD SVG 20010904//EN"
 "http://www.w3.org/TR/2001/REC-SVG-20010904/DTD/svg10.dtd">
<svg version="1.0" xmlns="http://www.w3.org/2000/svg"
 width="1401.000000pt" height="1317.000000pt" viewBox="0 0 1401.000000 1317.000000"
 preserveAspectRatio="xMidYMid meet">

<g transform="translate(0.000000,1317.000000) scale(0.100000,-0.100000)"
fill="#000000" stroke="none">
<path d="M6630 12774 c-359 -33 -725 -92 -930 -150 -47 -14 -109 -31 -137 -39
-29 -8 -79 -22 -110 -31 -277 -78 -639 -222 -883 -351 -313 -166 -363 -202
-410 -296 -48 -98 -51 -189 -10 -282 5 -11 30 -78 55 -150 42 -119 75 -207
200 -530 96 -249 178 -468 199 -537 23 -69 48 -139 66 -183 8 -18 64 -171 107
-295 20 -55 92 -128 158 -160 88 -43 185 -38 310 15 72 31 290 106 381 131
243 66 538 122 807 151 232 26 887 25 1102 0 438 -53 851 -150 1095 -259 130
-59 173 -70 245 -66 42 3 90 14 120 27 98 43 145 108 209 283 59 163 58 161
165 433 49 127 126 325 171 440 44 116 85 219 90 230 13 27 125 319 162 425
20 54 32 112 36 160 4 68 1 82 -26 140 -54 118 -180 214 -457 350 -410 201
-838 350 -1265 441 -126 26 -440 73 -600 89 -105 11 -766 21 -850 14z m790
-279 c138 -12 234 -25 420 -56 51 -8 158 -30 240 -49 19 -4 60 -13 90 -19 61
-13 184 -45 245 -66 22 -7 74 -23 115 -35 109 -32 243 -78 340 -115 74 -29
326 -139 337 -147 7 -6 44 -25 82 -43 85 -41 182 -105 234 -153 48 -46 48 -75
1 -184 -19 -45 -74 -180 -120 -298 -47 -118 -89 -224 -94 -235 -4 -11 -20 -54
-35 -95 -28 -79 -88 -234 -110 -285 -7 -16 -25 -61 -40 -100 -15 -38 -33 -86
-40 -105 -45 -114 -145 -381 -145 -386 0 -19 -52 -114 -62 -114 -7 0 -73 22
-146 50 -176 65 -327 111 -492 150 -74 17 -148 35 -165 40 -16 5 -48 11 -70
15 -22 3 -62 10 -90 15 -332 62 -586 83 -980 82 -493 -1 -1038 -77 -1415 -197
-41 -13 -95 -29 -120 -35 -25 -7 -58 -18 -75 -25 -33 -15 -274 -105 -281 -105
-9 0 -35 66 -99 245 -37 105 -110 305 -162 445 -51 140 -121 329 -154 420 -34
91 -97 257 -140 369 -44 112 -82 223 -86 247 -5 42 -4 46 35 82 23 21 54 45
69 52 15 8 51 28 78 45 45 28 200 106 295 148 19 8 64 29 100 45 36 16 76 33
90 37 14 4 66 23 115 42 91 35 222 80 305 103 25 6 63 18 85 26 77 26 333 91
410 104 298 52 423 70 555 79 85 6 171 13 190 15 103 9 554 4 690 -9z"/>
<path d="M6749 12229 l-29 -31 -2 -261 -3 -262 -267 -3 -266 -2 -26 -31 c-26
-30 -26 -32 -26 -204 0 -172 0 -174 26 -204 l26 -31 263 0 c230 0 264 -2 269
-16 3 -9 6 -122 6 -251 l0 -236 36 -34 37 -34 195 4 195 4 24 27 c23 27 23 29
23 282 l0 254 264 0 264 0 26 31 c26 30 26 32 26 208 0 165 -2 180 -21 205
l-20 26 -270 0 -269 0 -1 28 c-1 15 0 135 1 267 l1 240 -26 28 -26 27 -200 0
-201 0 -29 -31z"/>
<path d="M9650 10567 c-13 -34 -38 -103 -56 -153 -19 -51 -34 -99 -34 -107 0
-11 54 -43 155 -92 85 -43 158 -81 161 -86 7 -13 2 -11 -35 7 -18 9 -43 14
-57 11 -16 -3 -24 0 -24 9 0 8 -5 14 -11 14 -6 0 -8 -7 -5 -16 3 -9 6 -20 6
-24 0 -5 9 -14 20 -20 15 -8 18 -8 14 3 -3 8 2 17 10 20 9 4 16 2 16 -3 0 -6
8 -10 18 -10 16 -1 16 -1 0 -11 -21 -12 -24 -29 -5 -29 7 0 18 -9 25 -21 8
-12 9 -18 4 -15 -6 3 -12 1 -14 -5 -3 -9 -10 -9 -27 0 -12 7 -25 10 -28 7 -3
-3 3 -9 13 -13 10 -3 27 -16 38 -27 l18 -21 -6 23 c-6 18 -4 22 16 22 13 0 30
-6 36 -12 12 -12 24 -4 34 25 5 12 58 -17 58 -31 0 -9 10 -12 30 -8 26 4 30 1
30 -20 0 -13 5 -24 11 -24 5 0 8 4 5 9 -7 11 13 9 32 -3 8 -5 18 -4 25 3 8 8
6 11 -6 11 -10 0 -20 7 -23 15 -4 8 -10 12 -15 9 -5 -3 -9 -1 -9 4 0 4 -16 14
-35 22 -19 8 -35 17 -35 22 0 4 -9 8 -20 8 -11 0 -20 4 -20 8 0 4 -16 14 -35
21 -19 7 -35 17 -35 22 0 13 12 11 35 -5 11 -7 65 -37 120 -65 55 -29 114 -60
130 -71 52 -31 198 -118 248 -147 27 -15 62 -38 77 -50 15 -13 31 -23 35 -23
9 0 99 -62 103 -72 2 -4 10 -8 17 -8 7 0 35 -20 63 -45 27 -25 53 -45 56 -45
10 0 56 -43 56 -52 0 -15 -15 -8 -43 18 -15 14 -34 23 -42 20 -10 -3 -12 0 -8
11 4 9 2 14 -3 11 -5 -4 -20 0 -34 8 -16 8 -19 13 -9 14 8 0 20 -5 27 -12 9
-9 12 -9 12 0 0 12 -15 22 -42 26 -7 1 -18 5 -25 9 -7 4 -13 0 -16 -10 -3 -12
-5 -10 -6 7 0 14 -10 31 -22 38 -12 8 -18 9 -14 3 3 -6 -1 -14 -9 -17 -9 -3
-14 -10 -11 -14 7 -11 -5 -40 -17 -40 -5 0 -7 10 -3 23 5 17 4 19 -4 6 -11
-17 -4 -59 10 -59 5 0 9 7 9 15 0 18 16 20 23 3 4 -10 7 -10 15 0 12 17 44 4
40 -17 -2 -9 -13 -17 -26 -19 -12 -2 -22 -8 -22 -14 0 -5 -7 -7 -16 -4 -12 5
-14 1 -9 -17 5 -17 4 -19 -4 -7 -10 13 -12 13 -22 0 -8 -12 -9 -11 -4 6 6 22
-19 53 -32 40 -4 -4 -1 -11 7 -16 8 -5 12 -12 8 -15 -10 -11 -58 26 -57 44 0
10 2 11 6 4 2 -7 12 -13 20 -13 14 0 14 3 -2 20 -18 20 -18 20 -33 -1 -10 -14
-11 -23 -4 -28 6 -3 10 -13 10 -21 -3 -49 3 -72 16 -67 10 4 13 1 9 -9 -3 -7
0 -14 6 -14 5 0 15 -9 22 -21 10 -19 9 -20 -13 -15 l-23 7 22 -13 c16 -10 20
-17 13 -28 -14 -22 -12 -30 7 -30 9 0 14 -3 10 -6 -6 -7 41 -54 54 -54 4 0 18
-15 30 -32 20 -28 20 -31 4 -18 -22 17 -49 39 -84 69 -48 42 -38 20 12 -26 97
-89 111 -100 104 -80 -4 11 -3 16 3 12 6 -3 10 -14 10 -24 0 -9 4 -21 10 -27
7 -7 11 -659 12 -1899 3 -1681 5 -1888 18 -1890 41 -6 196 -48 205 -56 6 -4
31 -11 55 -15 25 -4 50 -11 56 -15 8 -6 13 23 17 99 8 133 10 3440 2 3453 -4
5 -3 9 2 9 4 0 19 -16 32 -36 23 -32 66 -74 271 -259 143 -129 221 -165 356
-165 94 0 157 18 221 62 71 48 71 59 6 113 -32 25 -93 79 -136 118 -174 158
-348 317 -472 432 -71 66 -159 145 -195 175 -36 30 -70 60 -76 65 -7 6 -74 71
-151 145 -76 74 -185 177 -243 229 -58 51 -154 142 -215 201 -60 59 -140 134
-177 166 -36 33 -144 131 -240 219 -95 88 -216 197 -269 243 l-97 82 -22 -63z
m225 -491 c8 -7 11 -16 8 -19 -5 -6 -33 17 -33 27 0 10 11 7 25 -8z m45 -37
c0 -6 -4 -7 -10 -4 -5 3 -10 11 -10 16 0 6 5 7 10 4 6 -3 10 -11 10 -16z m705
-429 c-3 -5 -10 -10 -16 -10 -5 0 -9 5 -9 10 0 6 7 10 16 10 8 0 12 -4 9 -10z
m70 -40 c3 -6 -1 -7 -9 -4 -18 7 -21 14 -7 14 6 0 13 -4 16 -10z m70 -30 c3
-5 2 -10 -4 -10 -5 0 -13 5 -16 10 -3 6 -2 10 4 10 5 0 13 -4 16 -10z m-255
-31 c0 -5 7 -9 15 -9 8 0 15 -4 15 -9 0 -4 -11 -6 -25 -3 -14 2 -22 8 -19 13
3 5 0 9 -5 9 -6 0 -11 4 -11 10 0 5 7 7 15 4 8 -4 15 -10 15 -15z m350 1 c0
-5 -2 -10 -4 -10 -3 0 -8 5 -11 10 -3 6 -1 10 4 10 6 0 11 -4 11 -10z m-320
-60 c0 -5 -4 -10 -10 -10 -5 0 -10 5 -10 10 0 6 5 10 10 10 6 0 10 -4 10 -10z
m429 -44 c9 -11 9 -16 -1 -22 -7 -4 -10 -4 -6 1 4 4 3 14 -3 22 -6 7 -9 13 -6
13 2 0 10 -6 16 -14z m45 -41 c6 -17 4 -18 -18 -9 -20 8 -21 24 -2 24 8 0 16
-7 20 -15z m43 -41 c-3 -3 -12 -4 -19 -1 -8 3 -5 6 6 6 11 1 17 -2 13 -5z
m-308 -202 c6 -10 25 -29 44 -42 19 -13 40 -32 46 -42 11 -18 11 -18 -14 -2
-14 9 -25 19 -25 23 0 3 -18 19 -40 35 -39 29 -50 46 -30 46 5 0 14 -8 19 -18z
m146 -132 c3 -5 1 -10 -4 -10 -6 0 -11 5 -11 10 0 6 2 10 4 10 3 0 8 -4 11
-10z m140 -3668 c-2 -9 -4 -19 -4 -22 -1 -3 -5 1 -10 9 -10 16 -3 44 9 36 5
-3 7 -13 5 -23z m-50 -2 c3 -6 -1 -7 -9 -4 -18 7 -21 14 -7 14 6 0 13 -4 16
-10z"/>
<path d="M4111 10478 c-85 -79 -205 -188 -267 -243 -62 -55 -170 -151 -241
-214 -70 -63 -158 -141 -194 -175 -36 -34 -103 -95 -150 -136 -46 -41 -118
-106 -159 -145 -41 -39 -98 -91 -126 -116 -28 -24 -141 -125 -250 -224 -109
-99 -221 -200 -249 -225 -27 -25 -88 -81 -135 -126 -145 -138 -358 -326 -404
-357 -7 -5 6 -24 40 -55 64 -60 130 -82 246 -82 101 0 170 20 248 72 51 34
209 170 338 290 30 27 56 47 60 43 6 -6 7 -271 11 -2507 1 -654 4 -968 11
-968 7 0 10 111 10 333 -2 475 0 547 11 547 5 0 9 -8 9 -18 0 -10 6 -24 13
-31 10 -11 9 -13 -5 -8 -12 4 -15 2 -11 -9 3 -7 9 -14 13 -14 4 0 10 -12 13
-27 3 -16 9 -37 13 -48 7 -18 6 -18 -9 -6 -9 7 -15 16 -13 20 3 4 1 13 -5 21
-7 12 -9 10 -9 -7 0 -31 28 -57 46 -42 9 7 12 20 8 33 -5 17 -1 15 20 -9 14
-16 26 -34 26 -38 0 -15 21 5 30 29 6 14 18 24 30 24 11 0 20 5 20 11 0 7 -11
9 -27 6 -16 -3 -32 1 -41 10 -13 12 -11 13 12 8 14 -3 37 -7 50 -10 14 -3 27
0 30 8 3 6 3 2 1 -10 -3 -12 -1 -24 5 -28 5 -3 10 1 10 11 0 14 2 14 16 3 9
-8 12 -15 6 -17 -12 -4 17 -42 32 -42 5 0 1 10 -10 22 -18 20 -18 21 -1 15 16
-6 16 -3 -3 24 -12 16 -19 33 -16 36 3 4 6 2 6 -4 0 -6 6 -13 13 -16 9 -3 12
13 12 68 0 40 4 71 9 68 4 -3 6 -23 3 -43 -3 -21 0 -43 6 -49 8 -8 7 -11 -2
-11 -9 0 -10 -4 -3 -12 6 -8 10 -147 10 -371 -1 -344 -1 -358 -20 -368 -11 -6
-26 -8 -33 -5 -7 2 -21 -2 -32 -11 -14 -12 -15 -14 -2 -10 9 3 36 8 60 12 l44
7 3 1306 c1 719 5 1570 8 1891 l6 585 86 81 c48 45 125 115 172 156 47 40 141
126 210 189 246 225 598 541 663 594 26 21 47 43 47 48 0 6 -24 74 -54 152
-30 77 -63 167 -72 199 -10 31 -23 57 -29 57 -6 0 -80 -64 -164 -142z m-1101
-4348 c8 -5 11 -10 5 -10 -5 0 -17 5 -25 10 -8 5 -10 10 -5 10 6 0 17 -5 25
-10z m45 -10 c3 -5 1 -10 -4 -10 -6 0 -11 5 -11 10 0 6 2 10 4 10 3 0 8 -4 11
-10z m-88 -32 c-3 -8 -6 -5 -6 6 -1 11 2 17 5 13 3 -3 4 -12 1 -19z m33 7 c0
-8 5 -15 10 -15 6 0 10 -7 10 -15 0 -8 5 -15 10 -15 6 0 10 -4 10 -10 0 -19
-15 -10 -37 23 -25 37 -28 47 -13 47 6 0 10 -7 10 -15z"/>
<path d="M9733 10045 c0 -8 4 -15 9 -15 4 0 8 4 8 9 0 6 -4 12 -8 15 -5 3 -9
-1 -9 -9z"/>
<path d="M9766 10012 c-3 -5 1 -15 9 -22 16 -14 20 -3 6 19 -5 8 -11 9 -15 3z"/>
<path d="M9956 9996 c10 -8 21 -12 24 -10 5 6 -21 24 -34 24 -6 0 -1 -6 10
-14z"/>
<path d="M9805 9980 c-3 -5 1 -10 9 -10 9 0 16 5 16 10 0 6 -4 10 -9 10 -6 0
-13 -4 -16 -10z"/>
<path d="M10000 9960 c0 -5 5 -10 11 -10 5 0 7 5 4 10 -3 6 -8 10 -11 10 -2 0
-4 -4 -4 -10z"/>
<path d="M10132 9958 c-26 -26 -4 -52 35 -42 11 3 25 -2 32 -10 11 -13 11 -16
1 -16 -8 0 -11 -2 -8 -5 3 -3 15 -2 27 3 21 8 21 9 -16 38 -53 42 -58 45 -71
32z"/>
<path d="M10073 9944 c-3 -8 -1 -20 5 -26 7 -7 10 -2 9 16 -2 30 -5 32 -14 10z"/>
<path d="M10251 9884 c0 -11 3 -14 6 -6 3 7 2 16 -1 19 -3 4 -6 -2 -5 -13z"/>
<path d="M9985 9860 c-3 -5 -1 -10 4 -10 6 0 11 5 11 10 0 6 -2 10 -4 10 -3 0
-8 -4 -11 -10z"/>
<path d="M10220 9862 c0 -12 19 -26 26 -19 2 2 -2 10 -11 17 -9 8 -15 8 -15 2z"/>
<path d="M10285 9820 c3 -5 8 -10 11 -10 2 0 4 5 4 10 0 6 -5 10 -11 10 -5 0
-7 -4 -4 -10z"/>
<path d="M10365 9810 c-3 -6 1 -7 9 -4 18 7 21 14 7 14 -6 0 -13 -4 -16 -10z"/>
<path d="M10547 9703 c-4 -3 -7 -11 -7 -17 0 -6 5 -5 12 2 6 6 9 14 7 17 -3 3
-9 2 -12 -2z"/>
<path d="M10505 9690 c-3 -5 -1 -10 4 -10 6 0 11 5 11 10 0 6 -2 10 -4 10 -3
0 -8 -4 -11 -10z"/>
<path d="M10560 9670 c0 -5 5 -10 10 -10 6 0 10 5 10 10 0 6 -4 10 -10 10 -5
0 -10 -4 -10 -10z"/>
<path d="M10400 9645 c0 -8 4 -15 10 -15 5 0 7 7 4 15 -4 8 -8 15 -10 15 -2 0
-4 -7 -4 -15z"/>
<path d="M10425 9610 c-3 -5 -1 -10 4 -10 6 0 11 5 11 10 0 6 -2 10 -4 10 -3
0 -8 -4 -11 -10z"/>
<path d="M10534 9574 c30 -30 38 -34 56 -24 26 14 26 24 -2 17 -15 -4 -28 1
-44 18 -13 14 -28 25 -35 25 -6 0 5 -16 25 -36z"/>
<path d="M10275 9590 c3 -5 8 -10 11 -10 2 0 4 5 4 10 0 6 -5 10 -11 10 -5 0
-7 -4 -4 -10z"/>
<path d="M10370 9590 c0 -5 5 -10 10 -10 6 0 10 5 10 10 0 6 -4 10 -10 10 -5
0 -10 -4 -10 -10z"/>
<path d="M10432 9570 c-7 -11 -8 -20 -3 -20 5 0 12 -8 15 -17 3 -10 4 -6 2 10
-2 15 1 27 5 27 5 0 9 5 9 10 0 17 -14 11 -28 -10z"/>
<path d="M10344 9530 c16 -19 38 -41 49 -49 19 -13 19 -13 3 11 -9 13 -30 35
-48 48 l-33 24 29 -34z"/>
<path d="M7775 9475 c-302 -55 -584 -235 -764 -487 -18 -26 -40 -49 -48 -52
-11 -4 -11 -10 -3 -26 8 -15 8 -18 -3 -14 -18 7 -31 -25 -17 -41 8 -9 8 -15 0
-20 -8 -5 -6 -15 5 -32 10 -14 12 -23 7 -19 -6 3 -13 2 -17 -4 -3 -5 0 -10 7
-10 8 0 6 -5 -5 -11 -13 -7 -15 -17 -10 -37 6 -24 5 -26 -11 -13 -14 12 -16
12 -10 -3 4 -10 13 -15 20 -12 19 7 45 -4 38 -16 -4 -6 2 -8 15 -3 13 4 21 2
21 -5 0 -6 5 -8 11 -4 7 4 0 13 -17 25 -15 10 -31 16 -36 13 -4 -3 -8 -1 -8 4
0 20 30 21 42 2 7 -11 18 -20 24 -20 6 0 34 26 62 59 67 77 158 167 202 200
19 14 37 28 40 32 18 21 139 91 210 122 307 134 651 84 876 -125 80 -76 143
-160 176 -236 11 -26 26 -61 34 -78 41 -93 56 -314 29 -442 -29 -141 -116
-327 -204 -437 -62 -78 -308 -327 -359 -365 -25 -18 -31 -28 -26 -44 6 -18 5
-19 -8 -8 -22 17 -54 -17 -35 -38 10 -12 9 -12 -6 -1 -18 14 -17 15 -81 -41
-11 -10 -24 -18 -29 -18 -5 0 -6 -7 -3 -16 8 -21 -4 -41 -14 -24 -4 7 -13 9
-20 5 -9 -6 -9 -9 1 -16 10 -6 8 -9 -9 -9 -15 0 -21 -4 -16 -12 4 -7 3 -8 -4
-4 -19 12 -35 -3 -21 -20 9 -11 7 -14 -14 -14 -27 0 -45 -16 -26 -22 8 -3 6
-10 -5 -21 -19 -19 -46 -23 -46 -6 0 5 -4 8 -9 5 -5 -3 -7 -15 -4 -26 6 -21
-11 -28 -22 -10 -5 8 -11 7 -21 -1 -11 -9 -11 -13 1 -26 8 -8 15 -20 14 -26 0
-9 -2 -8 -6 0 -3 10 -10 10 -25 2 -18 -9 -20 -9 -15 4 4 12 1 14 -11 10 -31
-11 -42 -25 -42 -55 0 -21 -4 -29 -13 -25 -8 3 -20 -3 -27 -13 -8 -11 -18 -17
-22 -14 -9 6 24 39 45 47 7 2 9 8 5 12 -4 4 -33 -14 -63 -40 -31 -26 -53 -50
-50 -54 4 -3 11 2 16 12 6 9 18 17 27 17 16 -1 15 -2 -1 -14 -10 -8 -19 -23
-20 -34 -1 -13 -7 -18 -18 -15 -24 7 -44 -31 -25 -46 7 -6 16 -8 19 -4 4 3 7
-1 7 -9 0 -9 -7 -18 -15 -22 -8 -3 -12 -12 -9 -21 3 -8 2 -15 -4 -15 -5 0 -13
7 -16 16 -9 22 -8 24 9 24 21 0 19 16 -2 25 -10 3 -20 7 -22 8 -2 1 -5 -10 -5
-25 -1 -16 3 -28 8 -28 5 0 6 -3 3 -7 -4 -3 -2 -12 4 -19 8 -10 7 -19 -4 -35
-14 -19 -13 -23 1 -40 9 -10 21 -19 26 -19 5 0 1 9 -9 20 -10 11 -16 21 -14
21 17 5 60 7 56 2 -3 -3 8 -18 25 -35 16 -16 27 -32 24 -35 -3 -3 -15 6 -27
21 -11 14 -30 31 -42 38 -21 11 -21 10 -7 -8 52 -69 67 -76 96 -46 17 16 18
16 11 -1 -4 -10 -7 -21 -7 -23 0 -3 -4 -2 -10 1 -5 3 -10 1 -10 -5 0 -7 -11
-5 -29 4 -28 15 -28 14 -28 -9 0 -14 3 -25 8 -25 5 0 9 4 9 10 0 5 7 7 15 4
21 -8 19 -31 -4 -44 -24 -12 -34 -13 -27 -1 3 5 -1 14 -9 21 -17 14 -20 3 -5
-20 6 -9 5 -17 -3 -23 -20 -14 36 5 59 20 14 9 20 21 17 32 -3 12 2 21 14 25
10 3 25 9 33 12 8 3 4 -4 -9 -15 -47 -42 -10 -19 83 50 55 40 93 76 89 82 -4
7 0 8 11 4 14 -6 17 -3 12 8 -3 10 -2 13 5 10 5 -4 43 18 83 49 40 31 76 56
80 56 4 0 12 5 19 10 7 6 22 18 34 28 12 9 50 41 85 69 34 29 117 96 183 149
146 118 369 332 454 437 79 98 160 226 216 342 89 185 118 316 118 540 0 141
-3 173 -27 270 -63 253 -201 453 -419 609 -72 51 -217 123 -269 132 -18 4 -40
11 -50 15 -32 17 -220 39 -320 38 -57 0 -134 -7 -173 -14z m205 -2179 c0 -2
-7 -7 -16 -10 -8 -3 -12 -2 -9 4 6 10 25 14 25 6z m-360 -297 c0 -5 -4 -9 -10
-9 -5 0 -10 7 -10 16 0 8 5 12 10 9 6 -3 10 -10 10 -16z m225 -189 c-3 -5 -14
-10 -23 -9 -14 0 -13 2 3 9 27 11 27 11 20 0z m-45 -29 c0 -5 -7 -11 -14 -14
-10 -4 -13 -1 -9 9 6 15 23 19 23 5z m-352 -55 c-7 -8 -15 -12 -17 -11 -5 6
10 25 20 25 5 0 4 -6 -3 -14z m247 4 c3 -5 1 -10 -4 -10 -6 0 -11 5 -11 10 0
6 2 10 4 10 3 0 8 -4 11 -10z m-65 -75 c0 -8 -4 -15 -9 -15 -5 0 -11 7 -15 15
-3 9 0 15 9 15 8 0 15 -7 15 -15z"/>
<path d="M10446 9481 c-3 -5 2 -15 12 -22 15 -12 16 -12 5 2 -7 9 -10 19 -6
22 3 4 4 7 0 7 -3 0 -8 -4 -11 -9z"/>
<path d="M10429 9443 c12 -24 31 -39 31 -25 0 5 -10 17 -21 28 -22 19 -22 19
-10 -3z"/>
<path d="M6742 9174 c10 -10 20 -16 22 -13 3 3 -5 11 -17 18 -21 13 -21 12 -5
-5z"/>
<path d="M6775 8850 c3 -5 8 -10 11 -10 2 0 4 5 4 10 0 6 -5 10 -11 10 -5 0
-7 -4 -4 -10z"/>
<path d="M6900 8810 c0 -5 5 -10 10 -10 6 0 10 5 10 10 0 6 -4 10 -10 10 -5 0
-10 -4 -10 -10z"/>
<path d="M6850 8777 c0 -8 9 -22 20 -32 20 -18 20 -18 4 13 -17 34 -24 40 -24
19z"/>
<path d="M6937 8659 c7 -7 15 -10 18 -7 3 3 -2 9 -12 12 -14 6 -15 5 -6 -5z"/>
<path d="M3975 8434 c-44 -11 -108 -50 -137 -83 -66 -75 -63 -50 -60 -651 3
-446 6 -558 19 -615 20 -90 121 -299 402 -830 89 -167 183 -307 241 -357 76
-65 233 -157 460 -269 113 -56 287 -146 388 -201 106 -58 218 -112 267 -127
47 -16 88 -31 92 -34 3 -4 17 -7 30 -7 20 0 23 4 17 28 -9 45 -76 173 -123
235 -69 92 -197 173 -461 292 -483 218 -540 259 -646 468 -37 73 -86 166 -109
207 -23 41 -66 120 -95 175 -30 55 -63 116 -75 135 -12 19 -51 96 -86 170
l-63 135 -6 130 c-4 72 -7 318 -8 547 -3 405 -2 417 17 427 34 19 69 12 105
-20 54 -47 83 -143 115 -384 6 -44 17 -134 26 -200 9 -66 20 -144 25 -174 6
-30 10 -65 10 -78 0 -34 47 -151 77 -190 l24 -33 -33 -47 c-28 -41 -33 -58
-36 -118 -4 -67 -2 -74 48 -173 53 -107 206 -341 293 -451 28 -35 78 -84 111
-108 97 -71 286 -154 286 -125 0 13 -50 86 -174 252 -186 251 -303 423 -337
495 -20 43 -21 50 -8 74 20 36 81 40 141 10 54 -27 181 -133 235 -196 53 -61
215 -227 273 -279 130 -116 232 -171 465 -249 243 -81 405 -183 538 -339 87
-101 162 -254 196 -400 18 -75 41 -336 41 -462 l0 -110 92 -65 c51 -35 109
-79 130 -98 21 -18 38 -29 39 -25 0 5 2 23 3 39 7 72 -14 539 -28 630 -48 310
-149 515 -357 724 -153 153 -350 265 -633 360 -116 39 -198 73 -233 96 -30 20
-136 116 -236 214 -100 98 -209 202 -242 230 l-60 53 -6 106 c-7 114 -16 153
-73 327 -40 120 -37 113 -94 235 -66 139 -142 209 -255 235 l-51 11 -21 90
c-41 173 -112 272 -242 336 -62 30 -164 45 -218 32z m532 -651 c32 -28 98
-148 114 -207 5 -17 18 -65 30 -106 24 -87 44 -176 53 -240 l6 -45 -110 0
c-60 -1 -110 1 -110 4 0 2 8 9 17 16 16 12 16 29 -15 276 -34 271 -38 329 -24
329 4 0 22 -12 39 -27z"/>
<path d="M9801 8424 c-25 -9 -61 -26 -80 -39 -45 -28 -141 -131 -160 -171 -7
-16 -17 -36 -21 -45 -7 -14 -37 -134 -42 -173 -2 -13 -13 -19 -38 -22 -89 -8
-190 -85 -252 -190 -31 -54 -118 -261 -118 -283 0 -5 -7 -22 -15 -37 -8 -16
-15 -37 -15 -46 0 -10 -9 -44 -19 -75 -23 -68 -44 -199 -39 -247 3 -31 -10
-45 -236 -265 -275 -269 -318 -300 -476 -347 -207 -61 -412 -156 -545 -253
-202 -147 -400 -418 -458 -626 -39 -141 -58 -392 -67 -878 0 -27 0 -27 63 25
34 30 92 75 128 101 l66 47 6 192 c12 371 55 533 189 716 139 188 371 339 663
432 116 36 265 113 345 176 41 33 147 136 235 228 204 214 336 316 410 316 25
0 55 -29 55 -52 0 -41 -160 -287 -361 -554 -95 -126 -164 -237 -150 -242 18
-6 159 47 222 84 88 52 159 121 237 234 62 88 152 228 152 235 0 2 23 40 51
85 28 46 57 101 65 123 27 76 12 179 -33 229 -15 17 -14 24 19 96 20 42 38 84
41 93 5 16 27 166 62 439 41 312 69 408 135 464 35 29 90 35 110 11 14 -16 14
5 1 -592 -10 -430 -12 -465 -31 -514 -20 -50 -163 -332 -180 -354 -9 -11 -90
-166 -156 -295 -23 -47 -61 -127 -83 -178 -50 -115 -84 -159 -169 -216 -60
-39 -300 -166 -315 -166 -9 0 -126 -53 -228 -104 -266 -132 -413 -254 -477
-396 -52 -115 -65 -162 -39 -143 6 5 37 17 67 27 81 26 214 85 300 132 41 22
188 97 326 167 324 162 351 177 465 253 162 107 198 157 414 579 54 105 108
208 120 230 54 96 175 344 190 390 27 82 34 205 36 730 3 546 4 532 -56 603
-44 52 -98 75 -190 79 -56 2 -93 -2 -124 -13z m-316 -641 c-6 -18 -55 -503
-55 -555 0 -28 -1 -28 -62 -28 -35 0 -80 -5 -101 -11 -22 -6 -41 -8 -44 -6 -2
3 3 29 12 59 9 29 25 85 35 123 53 206 117 363 167 409 33 30 58 35 48 9z"/>
<path d="M7363 6756 c0 -15 3 -26 8 -26 5 0 9 -5 9 -11 0 -6 -7 -8 -17 -4 -14
5 -15 3 -6 -6 6 -6 9 -18 6 -25 -3 -8 0 -14 7 -14 6 0 9 4 5 9 -3 5 2 16 10
24 20 20 19 34 -4 58 -18 20 -18 20 -18 -5z"/>
<path d="M7332 6754 c-7 -8 -8 -14 -3 -14 10 0 25 19 20 25 -2 1 -10 -3 -17
-11z"/>
<path d="M7260 6662 c6 -13 14 -21 18 -18 3 4 -2 14 -12 24 -18 16 -18 16 -6
-6z"/>
<path d="M7350 6651 c0 -6 4 -13 10 -16 6 -3 7 1 4 9 -7 18 -14 21 -14 7z"/>
<path d="M7397 6634 c3 -7 9 -14 14 -14 14 0 10 17 -5 23 -10 4 -13 1 -9 -9z"/>
<path d="M7386 6489 c6 -8 13 -21 16 -28 4 -13 5 -13 10 0 4 9 -2 21 -15 29
-19 11 -20 11 -11 -1z"/>
<path d="M7355 6441 c3 -2 0 -10 -6 -18 -17 -20 -1 -16 23 6 l21 20 -21 -2
c-12 0 -19 -3 -17 -6z"/>
<path d="M7306 6405 c4 -8 10 -15 15 -15 4 0 6 7 3 15 -4 8 -10 15 -15 15 -4
0 -6 -7 -3 -15z"/>
<path d="M7265 6359 c-16 -16 -26 -29 -22 -29 11 0 62 48 57 53 -3 3 -18 -8
-35 -24z"/>
<path d="M3105 6010 c10 -11 20 -20 22 -20 2 0 -1 9 -7 20 -6 11 -16 20 -22
20 -6 0 -3 -9 7 -20z"/>
<path d="M2985 6010 c3 -5 8 -10 11 -10 2 0 4 5 4 10 0 6 -5 10 -11 10 -5 0
-7 -4 -4 -10z"/>
<path d="M3140 6015 c0 -5 8 -17 18 -28 16 -19 16 -19 -8 -13 -21 6 -22 5 -7
-4 10 -7 23 -8 32 -2 13 7 12 12 -10 32 -14 13 -25 20 -25 15z"/>
<path d="M3052 6002 c-10 -7 -8 -14 7 -34 13 -16 17 -29 11 -37 -6 -6 -2 -4 8
5 16 14 16 16 0 28 -19 14 -24 36 -9 36 5 0 12 -7 15 -16 4 -9 9 -14 13 -11 6
7 -15 37 -26 37 -3 0 -12 -4 -19 -8z"/>
<path d="M3175 5940 c3 -5 11 -10 16 -10 6 0 7 5 4 10 -3 6 -11 10 -16 10 -6
0 -7 -4 -4 -10z"/>
<path d="M3005 5870 c3 -5 8 -10 11 -10 2 0 4 5 4 10 0 6 -5 10 -11 10 -5 0
-7 -4 -4 -10z"/>
<path d="M3030 5855 c0 -5 5 -17 10 -25 5 -8 10 -10 10 -5 0 6 -5 17 -10 25
-5 8 -10 11 -10 5z"/>
<path d="M3150 5846 c0 -2 8 -10 18 -17 15 -13 16 -12 3 4 -13 16 -21 21 -21
13z"/>
<path d="M3020 5816 c0 -2 8 -10 18 -17 15 -13 16 -12 3 4 -13 16 -21 21 -21
13z"/>
<path d="M2950 5771 c0 -6 4 -13 10 -16 6 -3 7 1 4 9 -7 18 -14 21 -14 7z"/>
<path d="M3150 5446 c0 -2 8 -10 18 -17 15 -13 16 -12 3 4 -13 16 -21 21 -21
13z"/>
<path d="M3055 5335 l-40 -14 40 6 c22 3 44 9 50 14 12 12 -1 10 -50 -6z"/>
<path d="M2978 5313 c7 -3 16 -2 19 1 4 3 -2 6 -13 5 -11 0 -14 -3 -6 -6z"/>
<path d="M2880 5290 c0 -5 5 -10 10 -10 6 0 10 5 10 10 0 6 -4 10 -10 10 -5 0
-10 -4 -10 -10z"/>
<path d="M4155 5224 c-236 -15 -376 -28 -555 -54 -280 -40 -381 -58 -389 -66
-6 -7 150 1 239 12 190 23 1048 22 1169 -1 12 -2 85 -11 164 -20 252 -29 415
-57 662 -115 72 -17 164 -37 206 -45 42 -9 105 -24 140 -35 333 -105 420 -134
462 -157 16 -8 31 -13 33 -10 7 7 -136 87 -266 149 -356 170 -813 295 -1199
328 -132 11 -566 20 -666 14z"/>
<path d="M9260 5224 c-327 -39 -488 -62 -570 -83 -19 -5 -73 -19 -120 -31 -99
-26 -206 -58 -235 -70 -11 -5 -42 -16 -70 -25 -27 -9 -77 -28 -110 -42 -33
-14 -69 -29 -80 -34 -82 -34 -155 -71 -155 -78 0 -5 19 -2 43 6 23 8 49 16 57
18 8 2 42 10 75 18 33 9 112 23 175 32 63 9 158 27 210 40 149 38 463 90 730
120 377 42 1025 45 1380 6 169 -19 515 -79 560 -97 8 -4 29 -8 47 -10 18 -1
56 -10 84 -18 29 -9 54 -14 57 -12 15 16 -608 156 -894 200 -335 53 -399 58
-779 61 -203 2 -386 1 -405 -1z"/>
<path d="M11358 4953 c7 -3 16 -2 19 1 4 3 -2 6 -13 5 -11 0 -14 -3 -6 -6z"/>
<path d="M11398 4943 c7 -3 16 -2 19 1 4 3 -2 6 -13 5 -11 0 -14 -3 -6 -6z"/>
<path d="M11438 4933 c7 -3 16 -2 19 1 4 3 -2 6 -13 5 -11 0 -14 -3 -6 -6z"/>
<path d="M11510 4916 c0 -2 7 -7 16 -10 8 -3 12 -2 9 4 -6 10 -25 14 -25 6z"/>
<path d="M11038 4833 c12 -2 32 -2 45 0 12 2 2 4 -23 4 -25 0 -35 -2 -22 -4z"/>
<path d="M11258 4813 c7 -3 16 -2 19 1 4 3 -2 6 -13 5 -11 0 -14 -3 -6 -6z"/>
<path d="M6300 4725 c0 -2 15 -12 33 -20 l32 -16 -25 20 c-24 20 -40 26 -40
16z"/>
<path d="M6375 4680 c3 -5 8 -10 11 -10 2 0 4 5 4 10 0 6 -5 10 -11 10 -5 0
-7 -4 -4 -10z"/>
<path d="M12240 4621 c0 -10 36 -21 65 -20 16 0 13 4 -10 14 -35 16 -55 19
-55 6z"/>
<path d="M230 3726 c0 -4 15 -27 33 -49 l32 -41 0 -651 c-1 -680 1 -647 -41
-792 l-6 -23 167 0 167 0 -5 28 c-3 15 -11 45 -18 67 -14 48 -25 1005 -11
1005 5 0 46 -96 92 -212 46 -117 117 -298 157 -403 41 -104 78 -199 83 -210
20 -46 70 -174 87 -222 l18 -53 82 0 c61 0 86 4 97 16 9 8 16 20 16 25 0 5 18
46 40 93 22 46 40 87 40 91 0 4 7 21 15 38 37 81 295 733 295 746 0 16 33 81
41 81 12 0 -3 -962 -17 -1052 l-6 -38 221 0 c245 0 242 -1 203 65 -16 28 -17
83 -20 687 l-3 657 25 73 c13 40 22 76 19 81 -2 4 -118 6 -256 3 l-251 -4 -21
-68 c-12 -38 -29 -83 -38 -101 -9 -18 -17 -41 -17 -53 0 -11 -4 -20 -10 -20
-5 0 -10 -7 -10 -15 0 -8 -6 -29 -14 -47 -8 -18 -38 -94 -67 -168 -28 -74 -60
-153 -69 -175 -10 -22 -21 -51 -25 -65 -8 -30 -60 -159 -87 -217 -19 -41 -48
-58 -48 -29 0 7 -37 107 -81 222 -96 248 -198 516 -241 634 -17 47 -35 90 -40
95 -11 12 -528 14 -528 1z"/>
<path d="M7136 3674 c22 -42 34 -84 39 -129 4 -38 2 -326 -4 -643 -12 -571
-17 -638 -50 -701 -6 -11 -11 -22 -11 -25 0 -3 73 -6 161 -6 l161 0 -7 33
c-12 49 -18 1084 -6 1072 5 -6 20 -42 34 -80 14 -39 46 -124 72 -190 59 -152
108 -278 147 -380 16 -44 34 -89 39 -100 19 -44 121 -311 126 -332 5 -22 10
-23 104 -23 77 0 99 3 99 14 0 11 24 69 70 171 13 28 142 352 205 515 29 74
64 160 78 191 14 30 37 90 52 132 15 42 31 77 35 77 3 0 5 -105 3 -232 -1
-128 -5 -359 -7 -513 -3 -186 -8 -291 -16 -313 -7 -18 -10 -35 -7 -38 2 -3
104 -6 226 -7 247 -2 237 -6 206 69 -30 73 -36 204 -34 734 2 508 8 706 24
743 7 16 -8 17 -236 17 l-244 0 -29 -73 c-15 -39 -37 -94 -47 -122 -10 -27
-63 -162 -116 -300 -53 -137 -115 -301 -138 -363 -23 -62 -46 -117 -51 -122
-6 -6 -39 67 -89 203 -43 116 -120 318 -170 447 -51 129 -98 253 -106 275 -7
22 -16 43 -19 47 -3 3 -122 8 -265 10 l-261 3 32 -61z"/>
<path d="M2675 3340 c-140 -22 -239 -72 -336 -170 -126 -127 -174 -271 -166
-490 3 -109 8 -135 34 -200 85 -217 275 -340 526 -340 108 0 198 21 287 65 68
35 197 135 207 162 7 17 -15 62 -50 105 l-23 28 -51 -35 c-86 -58 -162 -78
-278 -73 -107 4 -158 22 -201 70 -34 37 -71 119 -79 174 l-6 51 32 7 c17 3
178 6 357 6 l325 0 -6 113 c-13 268 -126 446 -322 506 -73 23 -183 32 -250 21z
m137 -191 c52 -28 87 -115 88 -220 l0 -56 -61 -7 c-34 -3 -116 -6 -182 -6
l-120 0 6 58 c14 128 65 211 145 236 46 15 90 13 124 -5z"/>
<path d="M4790 3340 c-155 -20 -312 -108 -396 -222 -101 -138 -140 -269 -129
-442 16 -274 155 -447 421 -526 72 -21 264 -8 354 25 91 33 135 63 219 148
l64 65 -21 29 c-11 15 -32 39 -46 53 -22 20 -30 22 -44 12 -105 -74 -208 -105
-307 -92 -77 10 -104 21 -149 60 -73 64 -104 144 -113 291 -13 217 54 373 176
410 21 6 55 9 74 5 74 -14 107 -66 107 -172 0 -50 1 -52 31 -58 17 -3 57 -6
88 -6 51 0 60 3 88 33 42 42 103 145 103 172 0 12 -23 47 -51 78 -101 114
-269 163 -469 137z"/>
<path d="M9529 3341 c-144 -20 -288 -83 -361 -157 -56 -55 -62 -71 -54 -129
12 -75 81 -111 193 -100 67 7 78 18 88 82 14 93 44 117 145 118 99 0 152 -65
165 -202 l7 -72 -29 -6 c-15 -3 -91 -21 -168 -39 -258 -63 -366 -115 -440
-212 -39 -51 -59 -153 -45 -227 31 -157 128 -243 289 -254 67 -5 89 -2 160 22
82 27 191 97 212 136 15 29 25 23 39 -23 38 -129 100 -160 244 -123 83 22 150
53 178 82 l23 25 -25 17 c-14 9 -38 28 -55 43 l-30 26 -1 354 c-1 301 -3 361
-18 410 -44 148 -166 225 -366 233 -52 2 -120 0 -151 -4z m171 -754 l0 -133
-34 -33 c-33 -32 -106 -61 -154 -61 -38 0 -92 30 -107 61 -19 36 -19 112 0
149 19 37 64 69 144 105 156 68 151 71 151 -88z"/>
<path d="M12094 3339 c-187 -22 -376 -144 -448 -288 -56 -112 -71 -178 -71
-316 1 -141 19 -224 72 -330 53 -104 191 -208 330 -250 68 -20 241 -20 340 1
191 39 338 165 411 354 63 160 52 398 -25 558 -36 74 -141 179 -215 215 -104
50 -260 72 -394 56z m157 -202 c86 -58 123 -183 123 -412 0 -171 -19 -258 -74
-332 -73 -98 -217 -76 -282 43 -46 86 -61 186 -55 358 7 206 35 288 116 343
47 32 125 32 172 0z"/>
<path d="M13582 3340 c-80 -17 -178 -89 -238 -176 l-39 -57 -3 112 c-3 132 15
125 -194 82 -79 -16 -160 -32 -180 -36 -21 -3 -38 -8 -38 -10 0 -2 9 -20 21
-39 31 -52 41 -245 33 -621 -6 -291 -11 -341 -39 -408 -7 -16 5 -17 206 -15
182 3 214 5 211 18 -2 8 -6 154 -9 325 -5 233 -3 320 6 348 19 58 84 133 127
147 44 15 138 6 171 -15 12 -8 26 -15 31 -15 17 0 132 267 132 306 0 18 -65
50 -115 57 -22 3 -59 1 -83 -3z"/>
<path d="M3665 3315 c-55 -12 -138 -30 -185 -39 -47 -10 -91 -20 -98 -22 -9
-3 -5 -17 15 -51 l28 -48 -1 -450 c0 -403 -2 -454 -17 -489 -10 -22 -14 -42
-10 -45 5 -4 100 -5 211 -3 l204 4 -6 31 c-9 50 -15 472 -7 568 5 71 11 94 36
134 17 26 47 62 68 79 35 28 45 31 110 31 49 0 83 -6 106 -18 28 -14 37 -15
46 -5 13 14 115 280 115 298 0 23 -84 50 -155 50 -119 0 -216 -61 -297 -187
l-43 -67 -3 127 c-1 70 -6 126 -10 126 -4 -1 -52 -12 -107 -24z"/>
<path d="M10495 3299 c-93 -21 -180 -38 -192 -38 -27 -1 -28 -3 -5 -61 15 -40
17 -92 17 -480 0 -378 -2 -442 -17 -490 -9 -30 -15 -57 -13 -58 5 -6 43 -6
232 -4 l172 2 3 406 3 405 51 48 c40 39 62 51 106 61 76 17 133 0 162 -50 20
-34 21 -48 21 -452 l0 -418 208 0 c114 0 207 4 207 9 0 5 -8 28 -17 52 -14 38
-18 104 -23 454 -6 398 -6 412 -29 468 -29 74 -65 115 -133 153 -50 28 -59 29
-173 29 -108 0 -125 -3 -175 -26 -30 -14 -89 -53 -131 -87 -43 -34 -82 -62
-89 -62 -9 0 -10 22 -5 84 4 46 3 86 -1 88 -5 2 -85 -12 -179 -33z"/>
<path d="M5350 3314 c0 -2 10 -25 82 -184 35 -76 110 -255 218 -520 51 -124
100 -244 111 -267 10 -24 19 -45 19 -48 0 -2 12 -30 26 -60 25 -53 26 -59 13
-98 -19 -57 -86 -123 -141 -138 -37 -10 -140 -8 -187 3 -17 4 -90 -171 -91
-215 0 -23 7 -31 43 -47 61 -28 216 -28 292 1 76 28 143 76 188 135 37 47 128
222 176 334 12 30 37 84 53 120 17 36 38 88 48 115 9 28 27 70 38 95 11 25 58
137 103 250 79 198 93 232 146 350 14 30 32 73 41 95 8 22 19 44 24 49 32 37
-16 43 -209 30 l-90 -7 -21 -91 c-11 -50 -33 -134 -50 -186 -47 -146 -149
-441 -156 -447 -10 -10 -14 -2 -39 87 -14 47 -64 203 -111 348 -47 144 -86
269 -86 277 0 8 -6 15 -12 15 -7 0 -106 1 -220 3 -115 2 -208 3 -208 1z"/>
<path d="M6040 1639 c-68 -13 -78 -18 -60 -29 13 -8 13 -10 -2 -10 -9 0 -18 4
-20 10 -1 5 -13 7 -25 4 -27 -7 -21 -24 10 -25 17 -1 18 -2 4 -6 -10 -3 -14
-10 -11 -16 5 -8 2 -8 -7 1 -21 20 -29 14 -19 -14 6 -15 7 -49 4 -76 -4 -27
-8 -57 -9 -66 -1 -10 -4 -24 -8 -32 -10 -24 -26 -104 -22 -109 3 -2 8 10 11
27 5 23 10 29 23 25 13 -5 14 -3 4 8 -7 7 -13 20 -13 29 0 9 11 2 29 -20 16
-19 27 -38 25 -42 -3 -4 2 -5 11 -1 12 4 16 1 15 -13 -1 -10 -1 -23 0 -29 2
-5 3 -18 4 -27 3 -51 36 6 49 86 2 12 6 28 9 36 19 52 57 203 62 248 7 58 10
56 -64 41z m-90 -244 c7 -9 8 -15 2 -15 -5 0 -12 7 -16 15 -3 8 -4 15 -2 15 2
0 9 -7 16 -15z m70 -25 c0 -5 -2 -10 -4 -10 -3 0 -8 5 -11 10 -3 6 -1 10 4 10
6 0 11 -4 11 -10z m-70 -20 c6 -11 9 -20 7 -20 -2 0 -12 9 -22 20 -10 11 -13
20 -7 20 6 0 16 -9 22 -20z m37 -12 c-3 -8 -6 -5 -6 6 -1 11 2 17 5 13 3 -3 4
-12 1 -19z"/>
<path d="M6975 1631 c-61 -11 -135 -34 -135 -44 0 -4 5 -5 10 -2 6 3 10 -3 10
-14 0 -12 -4 -21 -10 -21 -5 0 -10 -19 -10 -42 0 -67 -47 -278 -120 -543 -34
-122 -43 -156 -51 -205 -5 -30 -11 -64 -12 -75 -1 -11 -8 -29 -14 -41 -18 -31
-45 -189 -37 -218 6 -25 9 -26 74 -26 l68 0 7 38 c5 20 10 46 12 56 5 29 50
178 84 280 38 111 56 148 110 217 58 73 161 172 134 129 -4 -6 8 -10 28 -10
52 0 68 -31 65 -124 -2 -41 -6 -72 -10 -69 -5 2 -8 -3 -8 -13 0 -11 6 -15 19
-11 15 3 18 1 14 -11 -4 -8 -2 -13 3 -9 6 3 16 1 24 -4 13 -8 13 -10 1 -18
-10 -7 -19 -4 -27 7 -25 35 -52 15 -53 -39 -1 -18 8 -32 26 -45 16 -10 23 -19
15 -22 -14 -4 -16 -22 -3 -22 21 0 18 30 -5 55 -14 15 -23 29 -20 32 9 10 55
-48 61 -78 7 -30 19 -38 29 -16 4 6 4 2 2 -10 -2 -13 0 -26 5 -29 5 -3 9 4 9
16 0 12 7 35 16 51 8 17 22 61 31 97 8 37 19 87 25 112 16 66 16 162 0 168 -6
2 -10 7 -7 12 3 4 -9 20 -26 34 -24 20 -41 26 -77 25 -53 -1 -133 -31 -114
-43 7 -4 12 -13 12 -19 0 -7 -4 -6 -10 3 -8 13 -14 13 -45 -4 -19 -11 -33 -21
-30 -24 3 -3 -9 -14 -26 -24 -16 -10 -28 -22 -25 -27 7 -11 -18 -33 -27 -24
-4 3 -7 -1 -7 -11 0 -9 -9 -26 -20 -38 -11 -12 -20 -28 -20 -35 0 -7 -4 -13
-9 -13 -5 0 -11 -10 -15 -22 -4 -16 -8 -20 -16 -12 -13 13 14 144 66 329 55
193 75 276 89 363 7 46 10 45 -60 33z m287 -448 c-6 -2 -10 -9 -7 -14 4 -5 -1
-6 -9 -3 -20 8 -11 24 12 23 11 0 12 -2 4 -6z m41 -29 c-4 -12 -8 -13 -14 -3
-9 15 -2 32 11 24 5 -3 6 -13 3 -21z m-43 -25 c0 -6 -4 -7 -10 -4 -5 3 -10 11
-10 16 0 6 5 7 10 4 6 -3 10 -11 10 -16z m70 -14 c14 -19 14 -19 -2 -6 -10 7
-18 18 -18 24 0 6 1 8 3 6 1 -2 9 -13 17 -24z m-134 -2 c16 -21 18 -37 4 -28
-13 8 -33 45 -24 45 4 0 13 -8 20 -17z m108 -148 c-4 -8 -8 -15 -10 -15 -2 0
-4 7 -4 15 0 8 4 15 10 15 5 0 7 -7 4 -15z m-64 -21 c0 -8 -4 -12 -10 -9 -5 3
-10 10 -10 16 0 5 5 9 10 9 6 0 10 -7 10 -16z m26 -181 c-6 -6 -36 9 -36 18 0
5 9 4 20 -3 10 -7 18 -14 16 -15z"/>
<path d="M5835 1580 c-8 -13 15 -13 35 0 12 8 11 10 -7 10 -12 0 -25 -4 -28
-10z"/>
<path d="M6760 1570 c0 -12 8 -12 35 0 18 8 17 9 -7 9 -16 1 -28 -3 -28 -9z"/>
<path d="M8554 1561 c4 -5 -3 -7 -14 -4 -19 5 -133 -13 -153 -24 -4 -2 -5 -8
-2 -13 3 -4 22 -2 42 5 23 8 42 10 49 4 7 -5 33 -5 65 1 30 5 68 8 84 6 17 -3
40 -5 52 -5 28 -1 108 -80 128 -126 8 -22 15 -67 15 -106 0 -62 2 -69 20 -69
11 0 20 1 20 3 0 1 20 62 45 136 25 73 44 135 43 136 -11 7 -154 46 -202 54
-73 13 -199 14 -192 2z"/>
<path d="M3104 1515 c11 -8 25 -15 30 -15 6 0 2 7 -8 15 -11 8 -25 15 -30 15
-6 0 -2 -7 8 -15z"/>
<path d="M3403 1523 c9 -2 15 -8 13 -12 -3 -4 11 -5 30 -3 51 6 41 22 -13 21
-27 -1 -40 -3 -30 -6z"/>
<path d="M3995 1520 c-66 -4 -109 -7 -95 -9 14 -2 32 -3 42 -2 9 1 19 -2 22
-8 8 -12 -30 -25 -45 -15 -7 4 -9 3 -6 -3 4 -6 -4 -13 -17 -15 -16 -3 -23 -1
-20 7 3 7 -3 15 -13 17 -17 4 -18 -1 -12 -71 3 -42 11 -87 18 -100 11 -19 11
-23 0 -19 -8 3 -16 15 -19 29 l-6 24 -6 -27 c-3 -16 -1 -28 4 -28 5 0 8 -6 5
-12 -2 -7 0 -21 5 -30 5 -11 5 -18 -1 -18 -5 0 -11 6 -14 13 -2 6 -4 -1 -4
-18 -1 -16 3 -37 7 -46 5 -8 4 -22 -1 -30 -5 -7 -9 -9 -10 -4 -2 25 -8 47 -15
53 -4 4 -4 -13 0 -38 4 -25 11 -46 16 -48 6 -2 10 -11 10 -20 -1 -14 -4 -13
-19 6 -22 26 -36 29 -27 6 4 -9 1 -23 -5 -30 -7 -8 -9 -31 -6 -54 5 -38 -5
-61 -18 -40 -5 9 -413 3 -424 -6 -2 -2 50 -4 117 -4 70 0 123 -4 127 -10 3 -5
21 -9 38 -9 l32 1 -30 8 -30 8 27 1 c15 0 30 -3 33 -9 3 -5 21 -10 40 -10 19
0 37 -4 40 -10 9 -15 25 -12 25 5 0 8 -5 15 -12 15 -6 0 -8 3 -5 6 4 4 13 1
21 -5 19 -16 36 -6 36 20 0 27 17 24 22 -5 3 -15 0 -27 -8 -30 -10 -4 -10 -12
3 -37 14 -28 17 -30 28 -16 7 10 18 17 25 17 9 0 5 -8 -9 -21 -12 -12 -20 -27
-17 -34 3 -8 0 -16 -7 -19 -7 -3 -1 -3 12 0 22 6 23 4 17 -22 -5 -21 -4 -25 4
-14 8 12 10 10 10 -12 0 -39 -16 -43 -30 -8 -7 17 -16 30 -21 30 -5 0 -3 -10
5 -23 9 -12 17 -38 18 -57 3 -29 -1 -35 -18 -38 -19 -3 -21 -7 -14 -37 6 -26
5 -32 -6 -28 -16 6 -19 -8 -4 -23 12 -12 3 -44 -11 -44 -5 0 -9 -5 -9 -11 0
-6 7 -8 16 -5 14 5 16 1 11 -23 -3 -15 -2 -41 3 -57 9 -30 11 -28 15 21 2 25
21 152 29 190 1 6 4 15 8 20 3 6 9 34 13 63 5 41 3 58 -10 79 -14 21 -15 27
-4 34 21 13 29 11 23 -6 -3 -8 -2 -20 2 -26 7 -12 36 86 69 236 66 307 93 382
147 415 39 24 25 26 -117 20z m-182 -450 c-3 -11 -7 -20 -9 -20 -2 0 -4 9 -4
20 0 11 4 20 9 20 5 0 7 -9 4 -20z m84 -145 c1 -11 -1 -14 -4 -7 -3 6 -11 12
-19 12 -8 0 -14 4 -14 8 0 4 8 8 18 8 11 0 18 -8 19 -21z"/>
<path d="M3808 1513 c7 -3 16 -2 19 1 4 3 -2 6 -13 5 -11 0 -14 -3 -6 -6z"/>
<path d="M3848 1513 c7 -3 16 -2 19 1 4 3 -2 6 -13 5 -11 0 -14 -3 -6 -6z"/>
<path d="M8285 1489 c-79 -40 -134 -87 -199 -167 -214 -267 -247 -621 -74
-808 45 -49 140 -106 203 -123 56 -14 152 -20 200 -12 38 7 36 8 -33 15 -40 4
-70 11 -67 16 3 5 1 11 -5 15 -12 7 -14 26 -2 24 45 -7 50 14 6 25 -76 19
-152 109 -179 213 -18 68 -20 208 -5 313 26 181 111 352 217 435 28 22 52 45
52 51 1 8 -42 36 -52 34 -1 -1 -29 -14 -62 -31z m9 -1075 c5 -14 4 -15 -8 -5
-8 7 -20 10 -26 6 -5 -3 -10 -1 -10 4 0 17 37 13 44 -5z"/>
<path d="M8435 1510 c-3 -5 -2 -10 4 -10 5 0 13 5 16 10 3 6 2 10 -4 10 -5 0
-13 -4 -16 -10z"/>
<path d="M3340 1455 c10 -12 9 -16 -4 -21 -11 -4 -13 -10 -7 -18 6 -8 6 -17
-1 -26 -8 -12 -9 -12 -4 3 3 9 2 17 -3 17 -13 0 -21 -53 -10 -67 7 -7 6 -14
-1 -18 -13 -8 -41 25 -33 38 2 4 0 14 -6 21 -8 9 -8 21 -2 37 5 13 10 18 10
10 1 -8 4 -11 7 -8 4 4 1 13 -6 21 -10 13 -14 13 -26 1 -8 -7 -14 -18 -14 -24
0 -18 -13 -12 -35 16 l-22 26 1 -49 c1 -27 5 -55 9 -61 6 -9 3 -11 -9 -6 -15
5 -16 1 -11 -31 3 -20 2 -34 -2 -32 -7 5 -25 -58 -57 -204 -9 -41 -23 -102
-31 -135 -9 -33 -16 -67 -18 -75 -7 -49 -19 -97 -26 -111 -4 -9 -10 -31 -12
-50 -2 -19 -7 -41 -10 -49 -13 -31 -27 -112 -22 -121 4 -5 1 -9 -4 -9 -6 0
-11 -5 -11 -11 0 -6 -9 -24 -20 -39 -13 -18 -16 -31 -10 -35 21 -13 8 -20 -43
-23 -28 -2 -56 -7 -61 -12 -7 -7 64 -10 193 -10 132 0 200 3 196 10 -4 6 -57
10 -126 10 -81 0 -118 3 -114 10 4 6 1 17 -5 25 -20 24 1 17 21 -6 14 -17 22
-19 32 -11 10 9 17 8 26 -1 11 -10 12 -7 6 13 -5 19 -4 21 4 10 15 -22 24 -5
9 19 -8 13 -19 19 -30 15 -11 -3 -21 3 -29 18 -11 21 -11 22 4 9 10 -8 17 -9
17 -3 0 6 -5 14 -11 18 -6 3 -9 15 -6 25 3 11 1 19 -4 19 -5 0 -9 7 -9 16 0
14 2 14 15 0 8 -8 15 -24 15 -35 0 -12 6 -21 16 -21 8 0 12 -4 9 -10 -3 -5 0
-7 9 -4 8 3 12 12 10 19 -3 7 -1 16 5 20 6 3 11 1 11 -4 0 -6 6 -11 14 -11 8
0 16 -7 20 -15 4 -12 0 -14 -18 -9 -31 7 -43 -12 -22 -35 9 -10 16 -23 16 -30
0 -7 4 -10 9 -7 5 4 11 3 14 -1 2 -5 2 -3 1 4 -2 7 1 15 7 19 6 3 9 18 8 32
-1 15 1 34 3 42 3 8 14 53 23 100 10 47 26 119 36 162 11 42 19 84 19 93 0 9
11 32 25 52 18 28 22 40 13 50 -8 10 -5 31 10 81 22 71 50 196 61 272 4 25 10
51 14 57 9 15 -9 53 -25 53 -7 0 -6 -5 2 -15z m-112 -79 c0 -36 -25 -21 -26
15 -1 24 2 28 12 19 8 -5 14 -21 14 -34z m-113 -556 c3 -5 1 -10 -4 -10 -6 0
-11 5 -11 10 0 6 2 10 4 10 3 0 8 -4 11 -10z m-54 -97 c-12 -20 -14 -14 -5 12
4 9 9 14 11 11 3 -2 0 -13 -6 -23z m39 -22 c0 -11 3 -27 6 -35 4 -12 2 -15 -9
-10 -16 6 -29 42 -21 56 9 15 24 8 24 -11z m-25 -79 c0 -12 -4 -21 -10 -19 -5
2 -9 13 -8 23 1 10 -3 21 -8 25 -5 3 -7 14 -3 24 7 16 8 16 17 -6 6 -13 11
-34 12 -47z m-40 18 c3 -5 1 -10 -4 -10 -6 0 -11 5 -11 10 0 6 2 10 4 10 3 0
8 -4 11 -10z m110 0 c3 -5 -1 -10 -9 -10 -9 0 -16 5 -16 10 0 6 4 10 9 10 6 0
13 -4 16 -10z m-105 -170 c0 -5 -2 -10 -4 -10 -3 0 -8 5 -11 10 -3 6 -1 10 4
10 6 0 11 -4 11 -10z"/>
<path d="M6440 1398 c-14 -13 -42 -32 -63 -43 -36 -19 -38 -22 -32 -55 6 -32
5 -33 -8 -16 -14 19 -15 19 -26 -2 -15 -27 -14 -59 2 -66 6 -3 1 -3 -12 0 -19
5 -23 3 -18 -10 7 -17 -10 -21 -66 -17 -31 3 -57 -14 -57 -36 0 -12 8 -13 41
-8 33 6 43 4 54 -12 16 -21 20 -67 5 -58 -22 13 -8 -28 15 -47 13 -10 24 -22
23 -26 -1 -4 6 -23 17 -42 20 -38 30 -130 14 -130 -6 0 -8 -4 -5 -9 3 -5 -1
-25 -10 -46 -12 -29 -12 -40 -3 -51 20 -25 -23 -4 -48 23 -25 26 -30 38 -11
27 7 -4 8 -3 4 5 -10 16 -29 2 -21 -17 3 -8 0 -19 -7 -24 -10 -6 -10 -8 0 -8
6 0 12 -7 12 -16 0 -14 2 -14 16 -3 14 11 18 10 27 -6 15 -26 19 -65 6 -65 -5
0 -9 5 -9 10 0 6 -5 10 -11 10 -6 0 -8 -8 -4 -19 3 -10 3 -26 -1 -35 -6 -15
-8 -15 -26 3 -29 32 -44 26 -39 -15 2 -14 -29 -28 -38 -18 -3 4 0 9 7 11 10 4
10 8 0 21 -10 12 -10 14 0 8 14 -8 16 3 3 23 -5 7 -11 9 -14 5 -5 -9 -21 -90
-22 -109 0 -5 -3 -13 -8 -16 -8 -6 19 -79 29 -79 3 0 4 7 0 15 -3 9 0 15 9 15
8 0 15 5 15 11 0 5 -4 8 -9 5 -5 -3 -12 1 -15 10 -9 24 -8 25 17 12 37 -21 50
-48 22 -48 -8 0 -19 -9 -25 -20 -7 -14 -7 -20 0 -20 5 0 10 7 10 15 0 8 5 15
12 15 6 0 8 -3 5 -7 -9 -9 12 -33 29 -33 8 0 11 6 7 18 -4 11 3 7 20 -10 25
-27 55 -39 42 -18 -3 6 1 10 9 10 9 0 16 6 16 13 0 8 3 8 9 -2 8 -12 14 -13
36 -3 l27 13 -25 19 c-14 11 -29 20 -35 20 -18 0 -42 37 -42 66 0 16 7 61 16
99 8 39 17 79 19 90 2 11 11 47 20 80 9 33 14 72 11 87 -3 16 0 28 8 31 7 3
23 54 36 116 13 62 26 113 29 115 3 2 22 7 41 10 26 5 31 4 20 -3 -11 -8 1
-11 46 -11 53 0 62 3 67 20 4 17 0 20 -26 20 -18 -1 -51 -4 -74 -9 -37 -7 -42
-6 -52 15 -7 15 -7 34 0 56 5 18 16 63 23 101 14 74 8 83 -34 45z m-63 -80
c-3 -8 -6 -5 -6 6 -1 11 2 17 5 13 3 -3 4 -12 1 -19z m-22 -138 c3 -5 1 -10
-4 -10 -6 0 -11 5 -11 10 0 6 2 10 4 10 3 0 8 -4 11 -10z m-55 -44 c0 -3 -4
-8 -10 -11 -5 -3 -10 -1 -10 4 0 6 5 11 10 11 6 0 10 -2 10 -4z m70 -26 c8 -5
12 -11 9 -14 -7 -8 -49 5 -49 15 0 12 21 11 40 -1z m10 -68 c0 -15 -2 -15 -10
-2 -13 20 -13 33 0 25 6 -3 10 -14 10 -23z m0 -40 c0 -2 -5 0 -11 4 -8 4 -9 0
-4 -15 3 -11 2 -21 -3 -21 -6 0 -8 -9 -5 -20 3 -11 0 -20 -6 -20 -6 0 -11 5
-11 12 0 6 -7 19 -15 28 -16 17 -10 55 6 44 5 -3 9 2 9 10 0 14 3 14 20 -1 11
-10 20 -19 20 -21z m-155 -502 c7 -24 7 -24 -9 -5 -8 11 -16 27 -16 35 0 20
16 1 25 -30z"/>
<path d="M5910 1295 c0 -5 5 -17 10 -25 5 -8 10 -10 10 -5 0 6 -5 17 -10 25
-5 8 -10 11 -10 5z"/>
<path d="M5865 1230 c-8 -16 -15 -37 -14 -47 0 -12 3 -9 8 8 5 14 14 35 20 47
6 12 9 22 7 22 -3 0 -12 -13 -21 -30z"/>
<path d="M5235 1183 c-16 -3 -34 -9 -40 -15 -7 -7 -3 -8 14 -3 16 5 21 4 17
-4 -4 -6 -13 -11 -21 -11 -8 0 -17 -5 -21 -12 -5 -8 0 -9 17 -4 13 4 49 13 79
20 54 13 55 13 27 25 -16 6 -31 10 -35 10 -4 -1 -20 -4 -37 -6z"/>
<path d="M5980 1161 c0 -17 -4 -33 -10 -36 -5 -3 -10 -17 -10 -30 0 -13 -4
-26 -9 -29 -4 -3 -8 -25 -8 -48 0 -23 -5 -44 -12 -46 -6 -2 -11 -17 -11 -33 0
-16 -5 -29 -11 -29 -5 0 -9 -8 -8 -17 4 -42 -1 -51 -23 -46 -23 6 -23 6 1 -16
28 -24 35 -18 45 34 8 43 53 234 66 275 13 43 13 50 0 50 -5 0 -10 -13 -10
-29z"/>
<path d="M9232 1154 c-78 -40 -145 -91 -137 -104 3 -5 13 -6 23 -3 15 6 15 5
3 -10 -13 -17 -15 -16 -34 0 -20 17 -20 17 -14 0 4 -10 3 -16 -2 -13 -10 7
-57 -42 -48 -50 9 -9 38 16 31 27 -12 20 14 7 39 -19 17 -17 25 -35 22 -44 -4
-9 -1 -19 6 -24 9 -5 10 -2 6 9 -3 10 -3 17 1 17 11 0 75 110 68 117 -9 9 -44
-39 -50 -69 -7 -35 -19 -36 -35 -1 -11 24 -10 25 4 13 13 -11 15 -10 9 4 -4
10 -1 16 9 16 21 0 30 29 12 36 -23 9 -18 26 6 19 14 -5 19 -3 15 3 -3 6 -2
13 4 17 5 3 10 2 10 -3 0 -15 32 -24 44 -12 7 7 6 10 -2 10 -17 0 -15 27 3 34
8 3 15 1 15 -3 0 -5 -6 -12 -12 -14 -8 -3 -5 -6 5 -6 10 -1 35 10 55 24 54 37
108 34 157 -9 39 -33 39 -34 37 -96 -2 -34 -7 -71 -12 -81 -16 -28 -12 -49 14
-80 24 -28 39 -30 29 -3 -3 8 0 14 6 14 8 0 7 9 -3 28 -13 26 -13 28 6 29 15
2 19 -3 15 -18 -8 -28 7 -31 19 -4 9 19 9 25 -2 29 -15 6 -19 52 -6 60 4 2 14
-4 21 -16 7 -11 8 -17 2 -13 -6 3 -11 -1 -11 -9 0 -8 5 -18 10 -21 12 -7 14
-55 2 -55 -7 0 -8 -29 -3 -64 3 -22 17 10 28 62 6 31 23 95 37 141 15 46 29
102 32 123 l7 38 -62 0 c-50 0 -63 -3 -68 -17 -18 -52 -63 -70 -63 -27 0 22
-3 25 -23 21 -12 -4 -29 -2 -37 3 -8 5 -10 10 -5 11 6 0 -1 5 -15 9 -53 17
-97 10 -168 -26z m348 -10 c0 -10 6 -14 15 -10 8 3 15 1 15 -4 0 -11 -11 -13
-34 -4 -17 7 -22 34 -6 34 6 0 10 -7 10 -16z m34 -60 c3 -8 2 -12 -4 -9 -13 8
-13 -8 1 -22 7 -7 6 -12 -3 -16 -10 -3 -13 3 -12 22 3 47 7 53 18 25z m-1 -80
c-7 -3 -9 -13 -6 -22 5 -13 3 -14 -7 -5 -14 13 -5 33 13 32 9 0 9 -2 0 -5z
m-103 -50 c0 -8 -4 -12 -10 -9 -5 3 -10 13 -10 21 0 8 5 12 10 9 6 -3 10 -13
10 -21z"/>
<path d="M10794 1175 c-10 -8 -14 -15 -9 -14 6 1 18 -2 29 -6 21 -9 47 3 55
26 3 12 2 12 -11 1 -11 -9 -18 -10 -23 -2 -9 14 -18 13 -41 -5z"/>
<path d="M4410 1152 c-28 -13 -60 -37 -60 -45 0 -4 5 -5 10 -2 6 3 10 1 10 -4
0 -6 -4 -11 -10 -11 -5 0 -10 -4 -10 -10 0 -5 9 -10 20 -10 23 0 24 4 10 30
-7 13 -7 21 0 25 5 3 10 -1 10 -9 0 -9 5 -16 11 -16 5 0 7 4 4 10 -4 6 1 7 11
3 14 -5 16 -3 10 12 -4 11 -2 22 6 27 15 9 -1 9 -22 0z"/>
<path d="M5121 1146 c-19 -11 -21 -14 -7 -19 8 -3 21 0 28 7 8 7 20 15 28 19
11 4 9 6 -5 6 -11 0 -31 -6 -44 -13z"/>
<path d="M10734 1135 c8 -8 18 -15 22 -15 3 0 1 7 -6 15 -7 8 -17 15 -22 15
-5 0 -3 -7 6 -15z"/>
<path d="M10667 1118 c-57 -31 -159 -136 -190 -195 -31 -61 -32 -63 -12 -63
12 0 13 -4 3 -25 -6 -14 -16 -25 -21 -25 -5 0 -3 7 4 17 12 14 12 16 -1 11 -8
-2 -17 -15 -18 -27 -3 -17 0 -21 10 -16 7 3 5 0 -5 -8 -26 -21 -37 -71 -37
-160 0 -91 14 -128 71 -187 54 -55 128 -77 212 -60 88 17 168 56 161 78 -5 13
-4 14 4 3 12 -17 37 -1 107 69 59 59 53 79 -7 24 -69 -63 -130 -89 -215 -89
-44 0 -77 5 -84 12 -19 19 -29 16 -29 -7 0 -11 -7 -20 -15 -20 -18 0 -20 20
-2 20 6 1 0 8 -15 16 -16 8 -28 19 -28 24 0 4 -3 17 -6 27 -4 11 6 5 26 -15
17 -19 34 -31 38 -27 4 4 -3 15 -16 25 -20 16 -24 31 -29 104 -4 58 -2 90 6
99 6 8 9 21 5 30 -3 8 -1 18 5 22 6 3 11 17 11 30 0 13 13 59 30 102 17 43 27
86 24 98 -4 15 -3 16 4 6 8 -11 12 -9 22 9 10 18 9 24 -1 31 -8 5 -20 7 -26 4
-7 -2 -13 0 -13 5 0 16 42 60 57 60 7 0 13 5 13 10 0 12 3 13 -43 -12z m-37
-79 c0 -6 -4 -7 -10 -4 -5 3 -10 11 -10 16 0 6 5 7 10 4 6 -3 10 -11 10 -16z
m-20 -49 c0 -5 -5 -10 -11 -10 -5 0 -7 5 -4 10 3 6 8 10 11 10 2 0 4 -4 4 -10z
m-36 -55 c-11 -7 -15 -19 -11 -29 4 -10 3 -15 -3 -11 -6 3 -10 1 -10 -4 0 -6
-4 -11 -9 -11 -5 0 -7 9 -4 20 4 14 -1 23 -18 30 -21 9 -20 9 9 4 24 -4 34 -2
38 10 3 9 10 13 16 10 5 -3 1 -12 -8 -19z m-64 -19 c0 -3 -4 -8 -10 -11 -5 -3
-10 -1 -10 4 0 6 5 11 10 11 6 0 10 -2 10 -4z m3 -106 c-5 -17 -7 -18 -21 -4
-13 13 -13 17 -2 24 19 12 29 4 23 -20z m17 -61 c0 -11 -4 -18 -10 -14 -5 3
-7 12 -3 20 7 21 13 19 13 -6z m37 -311 c-3 -8 -6 -5 -6 6 -1 11 2 17 5 13 3
-3 4 -12 1 -19z m222 -4 c-5 -6 -19 -10 -29 -7 -30 8 -24 20 10 20 22 0 27 -3
19 -13z m-209 -26 c0 -9 -13 -10 -34 -2 -8 3 -12 12 -9 19 4 11 9 12 24 2 10
-6 19 -15 19 -19z"/>
<path d="M9840 1123 c0 -5 14 -8 31 -9 20 -1 26 2 17 7 -16 11 -48 12 -48 2z"/>
<path d="M5061 1107 c-8 -11 -5 -13 19 -9 16 2 27 8 24 13 -8 13 -30 11 -43
-4z"/>
<path d="M5374 1106 c-3 -8 -2 -22 3 -31 8 -14 11 -14 26 2 15 17 15 20 -4 31
-16 10 -20 10 -25 -2z"/>
<path d="M10411 1102 c-1 -7 -12 -17 -26 -22 -17 -7 -23 -15 -19 -27 5 -14 4
-15 -4 -4 -9 12 -13 12 -27 -2 -9 -9 -13 -22 -10 -28 4 -6 -2 -5 -13 2 -12 7
-24 10 -28 6 -13 -12 18 -37 46 -37 23 0 34 10 60 50 17 27 30 55 27 62 -4 11
-6 11 -6 0z"/>
<path d="M10980 1106 c0 -2 7 -9 15 -16 13 -11 14 -10 9 4 -5 14 -24 23 -24
12z"/>
<path d="M4317 1094 c-8 -8 1 -24 12 -24 4 0 8 7 8 15 0 16 -9 20 -20 9z"/>
<path d="M5530 1085 c0 -8 5 -15 10 -15 6 0 10 7 10 15 0 8 -4 15 -10 15 -5 0
-10 -7 -10 -15z"/>
<path d="M10143 1041 c-48 -74 -94 -157 -109 -196 -7 -16 -18 -43 -25 -60 -13
-30 -16 -40 -18 -62 0 -7 -10 -21 -22 -32 -11 -10 -22 -27 -24 -37 -2 -11 -4
-21 -4 -24 -2 -7 -21 23 -21 33 0 5 5 5 10 2 6 -3 10 1 10 9 0 9 5 16 10 16 6
0 10 7 10 15 0 8 4 15 10 15 16 0 8 74 -9 87 -12 9 -18 9 -23 0 -12 -19 -9
-27 8 -20 13 5 15 2 9 -15 -4 -14 -2 -22 5 -22 6 0 10 -6 7 -12 -2 -7 -10 -12
-16 -10 -6 1 -11 -7 -11 -17 0 -11 -10 -27 -22 -35 -17 -12 -19 -18 -10 -29
16 -19 -12 -79 -33 -70 -21 7 -19 23 3 24 14 0 14 2 -3 8 -11 5 -23 7 -27 4
-5 -2 -8 3 -8 11 0 9 -5 16 -11 16 -6 0 -9 -6 -6 -14 3 -7 2 -17 -3 -22 -7 -9
-34 -118 -43 -176 l-4 -28 82 0 83 0 27 117 c55 243 66 280 111 370 26 50 68
115 95 144 35 38 45 55 36 61 -20 13 -24 10 -64 -51z m-316 -473 c-3 -8 -6 -5
-6 6 -1 11 2 17 5 13 3 -3 4 -12 1 -19z"/>
<path d="M10306 1084 c16 -13 16 -15 2 -10 -10 3 -18 1 -18 -4 0 -15 21 -23
32 -12 12 12 -6 42 -25 42 -6 0 -2 -7 9 -16z"/>
<path d="M10670 1084 c0 -14 3 -15 12 -6 18 18 32 14 17 -5 -12 -14 -12 -16 1
-11 23 7 18 33 -7 36 -17 2 -23 -2 -23 -14z"/>
<path d="M11041 1093 c-1 -6 -4 -20 -7 -30 -5 -17 -5 -17 6 0 6 10 9 23 6 30
-3 9 -5 9 -5 0z"/>
<path d="M5023 1076 c-10 -11 -9 -15 2 -20 10 -4 15 1 15 14 0 23 -1 24 -17 6z"/>
<path d="M10240 1073 c0 -13 29 -38 35 -31 3 3 -4 13 -15 23 -11 10 -20 13
-20 8z"/>
<path d="M4280 1060 c-8 -5 -12 -11 -10 -14 3 -2 14 2 24 10 22 15 10 19 -14
4z"/>
<path d="M5827 1050 c3 -11 10 -23 16 -27 7 -4 8 0 4 11 -4 10 -7 22 -7 27 0
5 -4 9 -9 9 -5 0 -7 -9 -4 -20z"/>
<path d="M10040 1031 c0 -6 5 -13 10 -16 6 -3 10 1 10 9 0 9 -4 16 -10 16 -5
0 -10 -4 -10 -9z"/>
<path d="M4230 1015 c-9 -10 -9 -15 -1 -15 6 0 11 5 11 11 0 5 5 7 10 4 6 -3
10 -1 10 4 0 16 -16 13 -30 -4z"/>
<path d="M5040 995 c7 -8 8 -15 3 -15 -5 0 -15 -17 -21 -39 -18 -58 -15 -59
13 -5 30 58 30 60 9 68 -14 5 -15 4 -4 -9z"/>
<path d="M6236 994 c-4 -9 -4 -19 -1 -22 2 -3 7 3 11 12 4 9 4 19 1 22 -2 3
-7 -3 -11 -12z"/>
<path d="M11026 994 c-9 -22 3 -32 14 -14 12 19 12 30 1 30 -5 0 -12 -7 -15
-16z"/>
<path d="M5811 984 c0 -11 3 -14 6 -6 3 7 2 16 -1 19 -3 4 -6 -2 -5 -13z"/>
<path d="M5860 975 c0 -8 4 -15 10 -15 5 0 7 7 4 15 -4 8 -8 15 -10 15 -2 0
-4 -7 -4 -15z"/>
<path d="M6255 970 c-3 -5 1 -10 10 -10 9 0 13 5 10 10 -3 6 -8 10 -10 10 -2
0 -7 -4 -10 -10z"/>
<path d="M5507 963 c-4 -3 -7 -16 -6 -27 0 -19 1 -19 10 3 10 24 8 36 -4 24z"/>
<path d="M8974 908 c-41 -69 -72 -166 -80 -250 -6 -65 -6 -68 15 -68 11 0 21
-4 21 -10 0 -5 -5 -10 -12 -10 -9 0 -9 -3 0 -12 17 -17 15 -39 -4 -31 -12 4
-14 0 -8 -22 9 -37 46 -94 61 -95 6 0 13 -4 15 -9 2 -4 14 -12 28 -16 20 -6
23 -5 13 6 -18 18 -16 30 2 23 8 -4 15 -15 15 -25 0 -12 7 -19 20 -19 11 0 20
5 20 10 0 6 -6 10 -14 10 -8 0 -17 7 -20 16 -8 21 -8 21 10 28 11 4 15 2 11
-7 -3 -8 4 -12 22 -11 22 1 26 5 25 31 0 16 -11 45 -25 64 -22 31 -24 42 -22
134 1 55 4 115 5 134 2 22 -2 36 -11 39 -9 3 -11 0 -6 -8 6 -9 4 -11 -5 -5
-10 6 -12 2 -7 -15 5 -21 5 -22 -10 -8 -14 14 -13 18 7 38 15 15 25 19 34 11
9 -8 16 -5 24 12 16 32 19 59 5 64 -7 3 -9 -3 -6 -16 6 -23 -11 -29 -21 -8 -3
6 -4 -1 0 -17 4 -25 3 -28 -9 -17 -12 9 -16 8 -21 -4 -3 -8 -11 -15 -18 -14
-10 0 -10 2 0 6 6 2 10 9 6 14 -3 5 0 9 5 9 17 0 13 15 -10 41 l-20 24 7 -25
c6 -24 6 -24 -9 -5 -14 18 -14 21 -1 28 10 6 22 3 33 -8 17 -14 19 -14 24 0 8
18 -1 45 -15 45 -6 0 -8 -7 -5 -14 4 -10 1 -13 -9 -9 -7 3 -14 9 -14 14 0 22
-18 5 -46 -43z m22 -43 c1 -8 -2 -15 -7 -15 -5 0 -9 10 -9 22 0 23 12 17 16
-7z m4 -165 c0 -5 -2 -10 -4 -10 -3 0 -8 5 -11 10 -3 6 -1 10 4 10 6 0 11 -4
11 -10z m-80 -80 c0 -5 -2 -10 -4 -10 -3 0 -8 5 -11 10 -3 6 -1 10 4 10 6 0
11 -4 11 -10z m29 -147 l13 -28 -21 22 c-23 24 -26 33 -13 33 5 0 14 -12 21
-27z m76 17 c3 -5 -1 -10 -9 -10 -9 0 -16 5 -16 10 0 6 4 10 9 10 6 0 13 -4
16 -10z m71 -27 c-7 -7 -26 7 -26 19 0 6 6 6 15 -2 9 -7 13 -15 11 -17z m-110
-22 c-4 -5 0 -11 6 -14 7 -2 10 -8 6 -12 -4 -4 -14 -1 -22 8 -15 14 -12 27 6
27 5 0 7 -4 4 -9z"/>
<path d="M5794 944 c-7 -3 -9 -21 -7 -46 4 -31 2 -39 -8 -33 -9 6 -11 3 -6 -9
4 -10 1 -24 -8 -32 -8 -9 -16 -30 -17 -47 -2 -50 -3 -55 -11 -63 -23 -23 -1
-68 62 -131 19 -18 20 -22 7 -17 -15 6 -17 3 -11 -16 5 -15 4 -20 -4 -16 -6 4
-11 14 -11 22 0 8 -5 14 -11 14 -6 0 -9 7 -5 15 3 9 0 15 -9 15 -8 0 -12 6 -9
14 3 8 -3 19 -15 26 -19 10 -21 8 -23 -17 -1 -15 -1 -40 0 -55 1 -16 -2 -28
-7 -28 -4 0 -6 -11 -3 -25 2 -14 -1 -32 -8 -40 -10 -12 -10 -21 0 -45 12 -30
46 -57 57 -46 3 3 -1 8 -10 12 -9 3 -13 12 -10 20 7 19 23 18 23 -2 0 -8 4
-13 8 -10 4 2 14 0 22 -5 13 -8 13 -10 0 -19 -19 -12 -5 -13 18 -1 9 6 30 13
47 16 27 6 120 93 110 103 -2 2 -11 -3 -20 -12 -27 -27 -64 -31 -80 -10 -8 11
-13 24 -11 29 2 6 -1 18 -6 29 -7 12 -7 16 0 12 7 -4 14 9 18 31 3 21 12 56
19 78 18 59 28 145 15 145 -9 0 -15 -29 -11 -52 0 -5 -3 -8 -9 -8 -5 0 -10 3
-11 8 -2 24 -8 45 -15 50 -4 4 -4 -1 -1 -10 4 -10 2 -18 -3 -18 -6 0 -10 5
-10 10 0 6 -5 10 -11 10 -8 0 -7 -6 2 -17 11 -13 11 -17 2 -20 -10 -4 -10 -10
-1 -26 11 -22 11 -22 -10 -4 -11 11 -18 25 -16 32 3 7 1 16 -5 20 -6 3 -11 11
-11 16 0 6 4 8 9 4 14 -8 29 25 27 60 -1 17 3 36 8 43 5 8 4 12 -4 12 -7 0
-10 8 -7 20 5 20 2 22 -19 14z m56 -239 c0 -25 -4 -35 -15 -35 -12 0 -14 -7
-9 -27 6 -27 6 -27 -9 -8 -9 11 -17 27 -17 36 0 8 -5 20 -12 27 -21 21 -2 23
20 2 28 -27 32 -25 32 10 0 17 2 30 5 30 3 0 5 -16 5 -35z m17 -17 c-3 -8 -6
-5 -6 6 -1 11 2 17 5 13 3 -3 4 -12 1 -19z m-85 -183 c-3 -13 1 -16 12 -12 17
7 20 -1 10 -28 -6 -14 -10 -13 -30 11 -25 29 -28 37 -17 48 12 12 28 0 25 -19z
m-5 -71 c-12 -12 -37 5 -30 21 5 15 7 15 21 1 9 -9 13 -18 9 -22z m-57 -10 c0
-20 -7 -17 -20 6 -9 16 -8 18 5 14 8 -4 15 -12 15 -20z m95 -14 c3 -5 1 -10
-4 -10 -6 0 -11 5 -11 10 0 6 2 10 4 10 3 0 8 -4 11 -10z"/>
<path d="M6250 945 c0 -17 37 -67 43 -58 3 5 -5 22 -18 39 -13 16 -24 25 -25
19z"/>
<path d="M3777 929 c7 -7 15 -10 18 -7 3 3 -2 9 -12 12 -14 6 -15 5 -6 -5z"/>
<path d="M10940 900 c0 -5 10 -10 23 -10 18 0 19 2 7 10 -19 13 -30 13 -30 0z"/>
<path d="M3736 873 c-9 -34 -20 -108 -17 -118 2 -5 5 -19 7 -30 1 -11 3 -22 3
-24 1 -3 8 4 16 15 12 17 12 20 -3 32 -12 9 -13 15 -6 20 7 4 10 28 9 55 -2
26 1 47 6 47 5 0 9 5 9 10 0 17 -18 11 -24 -7z"/>
<path d="M3800 870 c0 -5 5 -10 10 -10 6 0 10 5 10 10 0 6 -4 10 -10 10 -5 0
-10 -4 -10 -10z"/>
<path d="M3756 862 c-7 -12 40 -79 67 -93 20 -10 19 -9 -5 17 -14 16 -28 40
-30 53 -3 25 -22 39 -32 23z"/>
<path d="M6200 832 c0 -23 4 -42 9 -42 6 0 7 17 4 38 -8 51 -13 53 -13 4z"/>
<path d="M6271 865 c16 -37 33 -65 41 -65 15 0 8 19 -18 47 -15 15 -25 24 -23
18z"/>
<path d="M9430 803 c-11 -38 -25 -76 -31 -85 -5 -10 -9 -22 -9 -27 0 -14 -74
-123 -99 -145 -11 -10 -18 -22 -16 -26 3 -4 -5 -11 -18 -14 -12 -3 -31 -13
-41 -21 -17 -12 -17 -17 -5 -31 13 -16 12 -16 -13 0 -19 12 -28 14 -33 5 -6
-8 -10 -8 -16 2 -4 7 -11 10 -15 6 -4 -4 -2 -13 4 -19 22 -22 14 -48 -13 -48
-14 0 -25 -4 -25 -10 0 -15 17 -12 68 14 49 25 142 117 142 140 0 8 6 16 14
19 8 3 20 18 28 34 7 15 22 29 32 31 17 4 18 0 12 -39 -5 -30 -3 -45 6 -51 10
-6 8 -8 -4 -8 -18 0 -23 -11 -11 -23 3 -4 13 2 21 14 10 15 11 24 3 32 -18 18
-13 29 8 17 13 -7 17 -16 14 -31 -5 -16 -3 -20 6 -14 7 4 11 16 8 26 -3 12 3
26 17 37 l23 17 -24 18 c-30 23 -29 35 2 43 27 7 33 19 13 27 -10 4 -10 6 -1
6 9 1 10 8 2 27 -6 18 -6 37 1 59 11 32 -2 85 -21 85 -4 0 -17 -30 -29 -67z
m22 -95 c-7 -7 -12 -8 -12 -2 0 14 12 26 19 19 2 -3 -1 -11 -7 -17z m-2 -21
c11 -5 9 -6 -4 -4 -11 1 -21 9 -23 17 -3 10 -2 11 4 4 4 -6 15 -14 23 -17z"/>
<path d="M6245 840 c-3 -5 -1 -10 4 -10 6 0 11 5 11 10 0 6 -2 10 -4 10 -3 0
-8 -4 -11 -10z"/>
<path d="M10850 829 c0 -5 5 -7 10 -4 6 3 10 8 10 11 0 2 -4 4 -10 4 -5 0 -10
-5 -10 -11z"/>
<path d="M9532 821 c-11 -7 -11 -9 2 -14 10 -4 16 -1 16 8 0 17 -1 17 -18 6z"/>
<path d="M9995 819 c-4 -6 -5 -12 -2 -15 2 -3 7 2 10 11 7 17 1 20 -8 4z"/>
<path d="M5459 808 c0 -7 -2 -25 -3 -40 -1 -16 2 -28 6 -28 4 0 8 8 8 18 0 9
3 27 6 40 4 13 2 22 -5 22 -6 0 -11 -6 -12 -12z"/>
<path d="M6260 812 c0 -5 10 -17 22 -28 l21 -19 -18 28 c-18 28 -25 33 -25 19z"/>
<path d="M10780 811 c0 -6 -6 -11 -12 -10 -7 1 -20 0 -28 -3 -60 -21 -90 -28
-115 -28 -22 0 -26 -3 -17 -12 9 -9 29 -8 86 6 70 16 107 38 92 53 -3 3 -6 1
-6 -6z"/>
<path d="M10818 813 c7 -3 16 -2 19 1 4 3 -2 6 -13 5 -11 0 -14 -3 -6 -6z"/>
<path d="M4205 790 c3 -5 8 -10 11 -10 2 0 4 5 4 10 0 6 -5 10 -11 10 -5 0 -7
-4 -4 -10z"/>
<path d="M9555 772 c-3 -17 -12 -33 -20 -36 -17 -6 -39 19 -29 35 4 8 3 9 -5
5 -13 -8 -5 -47 12 -57 5 -4 7 -13 5 -20 -3 -8 -1 -22 4 -31 6 -14 5 -16 -7
-12 -10 4 -15 0 -15 -11 0 -9 -5 -13 -11 -9 -8 4 -8 0 0 -15 7 -12 9 -26 6
-32 -7 -11 12 -39 27 -39 5 0 8 6 7 13 -1 6 1 19 4 27 10 23 39 202 33 207 -2
2 -7 -9 -11 -25z"/>
<path d="M9891 784 c0 -11 3 -14 6 -6 3 7 2 16 -1 19 -3 4 -6 -2 -5 -13z"/>
<path d="M6191 758 c-10 -26 3 -58 22 -58 8 0 8 3 -2 9 -9 6 -11 18 -6 40 8
36 -2 42 -14 9z"/>
<path d="M3794 755 c3 -8 0 -15 -6 -15 -7 0 -6 -5 2 -15 10 -12 15 -13 20 -4
4 6 13 8 19 5 18 -11 13 9 -7 27 -23 21 -36 22 -28 2z"/>
<path d="M4220 760 c0 -6 4 -10 10 -10 5 0 7 -7 4 -15 -4 -8 -10 -12 -16 -9
-5 3 -18 -4 -29 -17 -22 -26 -24 -30 -6 -24 8 4 13 -7 13 -35 1 -22 -2 -40 -7
-40 -5 0 -9 5 -9 10 0 6 -6 10 -12 10 -7 -1 -2 -10 12 -22 l25 -20 3 20 c2 11
10 26 18 32 12 10 14 8 14 -14 0 -15 5 -37 11 -48 8 -16 8 -22 -2 -29 -11 -6
-10 -9 3 -14 13 -5 14 -10 5 -19 -9 -10 -14 -6 -27 18 -8 16 -22 32 -30 34
-12 4 -11 0 3 -21 22 -33 22 -53 0 -66 -14 -7 -15 -13 -6 -22 14 -14 5 -42
-11 -32 -6 4 -5 -1 3 -10 27 -33 127 -46 216 -28 32 7 22 8 -50 8 -50 0 -99 5
-111 11 -12 6 -23 9 -26 7 -2 -2 -2 11 0 30 3 24 8 32 18 28 17 -6 38 -42 30
-50 -3 -3 -8 2 -12 11 -8 20 -21 21 -21 1 0 -20 37 -31 49 -14 7 11 11 11 15
2 2 -7 18 -13 34 -13 17 0 28 4 24 9 -8 14 7 20 59 24 66 6 66 13 -1 20 -100
10 -144 60 -151 172 -4 66 -2 78 14 90 11 8 26 15 35 15 8 0 24 7 35 15 18 14
17 15 -7 6 -15 -5 -29 -8 -31 -6 -10 10 -88 14 -88 5z m11 -82 c-11 -11 -13
-10 -8 4 4 12 2 15 -9 11 -7 -3 -14 -1 -14 4 0 19 14 23 29 8 13 -12 13 -17 2
-27z m73 -193 c14 -14 35 -25 48 -25 21 -1 21 -1 5 -11 -15 -9 -23 -6 -41 10
-15 14 -30 19 -42 15 -16 -5 -16 -4 -4 5 13 10 13 12 0 21 -9 6 -10 10 -3 10
7 0 23 -11 37 -25z"/>
<path d="M9913 748 c-2 -18 0 -20 7 -8 12 18 13 30 2 30 -4 0 -9 -10 -9 -22z"/>
<path d="M3750 710 c0 -5 5 -10 11 -10 5 0 7 5 4 10 -3 6 -8 10 -11 10 -2 0
-4 -4 -4 -10z"/>
<path d="M5279 685 c-11 -24 -13 -37 -5 -45 7 -7 5 -10 -6 -10 -9 0 -28 -16
-43 -35 -14 -20 -36 -44 -48 -55 -20 -20 -14 -48 8 -32 10 7 15 14 53 74 9 15
22 30 28 32 13 5 59 -52 49 -62 -3 -4 -10 0 -14 7 -5 7 -11 9 -14 4 -8 -13 -5
-103 4 -108 4 -3 5 4 2 15 -6 22 7 26 24 9 9 -9 10 -7 6 10 -5 21 10 30 22 11
8 -13 35 -1 35 16 0 17 -20 19 -21 2 -1 -7 -5 3 -10 22 -4 19 -6 44 -3 55 4
16 3 17 -5 5 -9 -13 -12 -12 -25 5 -18 25 -10 40 12 23 15 -11 15 -11 6 2 -6
8 -14 32 -18 53 -8 46 -16 46 -37 2z m31 -10 c0 -8 -4 -15 -8 -15 -5 0 -9 7
-9 15 0 8 4 15 9 15 4 0 8 -7 8 -15z"/>
<path d="M5445 703 c-11 -25 -13 -55 -4 -46 9 10 23 63 16 63 -3 0 -8 -8 -12
-17z"/>
<path d="M7120 711 c0 -6 4 -12 8 -15 5 -3 9 1 9 9 0 8 -4 15 -9 15 -4 0 -8
-4 -8 -9z"/>
<path d="M7176 712 c-2 -4 -1 -14 3 -21 6 -10 10 -9 14 3 6 16 -8 32 -17 18z"/>
<path d="M4100 701 c0 -6 4 -13 10 -16 6 -3 7 1 4 9 -7 18 -14 21 -14 7z"/>
<path d="M6260 690 c0 -5 5 -10 11 -10 5 0 7 5 4 10 -3 6 -8 10 -11 10 -2 0
-4 -4 -4 -10z"/>
<path d="M3755 644 c1 -24 7 -50 13 -56 7 -7 12 -10 13 -7 7 53 4 81 -10 94
-15 13 -17 10 -16 -31z"/>
<path d="M3707 661 c-3 -11 -1 -24 5 -27 5 -3 7 -12 4 -20 -3 -7 -1 -16 3 -19
15 -9 18 19 6 54 -11 30 -13 31 -18 12z"/>
<path d="M7110 668 c0 -10 -4 -18 -9 -18 -10 0 -41 -124 -41 -167 0 -37 16
-84 33 -95 35 -22 136 2 180 43 11 10 24 19 28 19 10 0 99 113 94 118 -2 3
-28 -21 -58 -52 -29 -31 -60 -56 -70 -56 -9 0 -24 11 -33 25 -14 21 -15 34 -7
75 6 31 7 53 1 56 -5 3 -7 12 -4 20 3 7 1 16 -4 19 -6 4 -10 0 -10 -7 0 -10
-3 -9 -11 2 -9 12 -10 11 -4 -5 4 -11 8 -36 10 -55 2 -31 2 -32 -8 -12 -5 12
-14 22 -19 22 -5 0 -6 5 -3 10 3 6 3 15 -1 22 -5 8 -10 6 -15 -8 -4 -11 -1
-28 7 -41 8 -13 10 -23 5 -23 -15 0 -40 41 -34 56 3 8 0 14 -7 14 -7 0 -10 6
-7 13 3 8 1 20 -4 28 -7 11 -9 11 -9 -3z m55 -128 c3 -5 1 -10 -4 -10 -6 0
-11 5 -11 10 0 6 2 10 4 10 3 0 8 -4 11 -10z"/>
<path d="M9840 668 c0 -9 7 -19 16 -22 15 -6 15 -4 3 11 -7 10 -15 20 -16 22
-2 2 -3 -3 -3 -11z"/>
<path d="M4146 657 c3 -10 9 -15 12 -12 3 3 0 11 -7 18 -10 9 -11 8 -5 -6z"/>
<path d="M4092 630 c0 -14 2 -19 5 -12 2 6 2 18 0 25 -3 6 -5 1 -5 -13z"/>
<path d="M6240 631 c0 -6 5 -13 10 -16 6 -3 10 1 10 9 0 9 -4 16 -10 16 -5 0
-10 -4 -10 -9z"/>
<path d="M9880 630 c0 -5 5 -10 11 -10 5 0 7 5 4 10 -3 6 -8 10 -11 10 -2 0
-4 -4 -4 -10z"/>
<path d="M8732 581 c-24 -25 -38 -47 -32 -49 12 -4 3 -22 -11 -22 -6 0 -7 5
-4 10 10 16 -11 12 -25 -5 -7 -8 -9 -15 -4 -15 24 0 -60 -58 -106 -73 -8 -3
-4 -6 10 -6 14 0 43 11 65 24 22 14 50 29 62 35 21 9 50 49 82 112 22 43 10
39 -37 -11z"/>
<path d="M4940 605 c0 -8 4 -15 10 -15 5 0 7 7 4 15 -4 8 -8 15 -10 15 -2 0
-4 -7 -4 -15z"/>
<path d="M4137 595 c-4 -8 -2 -17 2 -20 5 -2 11 4 14 15 6 23 -8 27 -16 5z"/>
<path d="M3676 585 c-3 -8 -1 -15 4 -15 6 0 10 7 10 15 0 8 -2 15 -4 15 -2 0
-6 -7 -10 -15z"/>
<path d="M4220 580 c0 -5 5 -10 10 -10 6 0 10 5 10 10 0 6 -4 10 -10 10 -5 0
-10 -4 -10 -10z"/>
<path d="M3755 561 c5 -17 3 -20 -12 -14 -17 6 -17 6 0 -14 13 -15 15 -22 6
-25 -8 -3 -9 -9 -5 -17 7 -11 10 -11 18 0 7 10 8 8 3 -8 -3 -12 -1 -24 5 -28
5 -3 10 1 10 9 0 10 6 13 15 10 21 -8 19 13 -2 25 -15 9 -15 12 -5 19 11 8 11
10 -2 15 -9 4 -16 13 -16 21 0 8 -5 18 -11 22 -8 4 -9 0 -4 -15z"/>
<path d="M4636 559 c-14 -11 -26 -25 -26 -30 0 -18 16 -9 38 21 27 35 24 37
-12 9z"/>
<path d="M4100 560 c0 -5 5 -10 10 -10 6 0 10 5 10 10 0 6 -4 10 -10 10 -5 0
-10 -4 -10 -10z"/>
<path d="M6474 539 c-16 -18 -47 -45 -69 -61 -38 -29 -39 -30 -12 -26 15 2 27
7 27 13 -1 5 7 12 18 16 21 8 78 76 70 84 -2 3 -18 -9 -34 -26z"/>
<path d="M4130 550 c0 -5 5 -10 11 -10 5 0 7 5 4 10 -3 6 -8 10 -11 10 -2 0
-4 -4 -4 -10z"/>
<path d="M4900 540 c0 -5 5 -10 10 -10 6 0 10 5 10 10 0 6 -4 10 -10 10 -5 0
-10 -4 -10 -10z"/>
<path d="M5970 529 c0 -5 5 -7 10 -4 6 3 10 8 10 11 0 2 -4 4 -10 4 -5 0 -10
-5 -10 -11z"/>
<path d="M9618 498 c-21 -23 -38 -42 -38 -44 0 -1 9 0 20 3 17 5 70 63 70 77
0 14 -18 2 -52 -36z"/>
<path d="M4156 515 c4 -8 8 -15 10 -15 2 0 4 7 4 15 0 8 -4 15 -10 15 -5 0 -7
-7 -4 -15z"/>
<path d="M4185 520 c-3 -5 -1 -10 4 -10 6 0 11 5 11 10 0 6 -2 10 -4 10 -3 0
-8 -4 -11 -10z"/>
<path d="M4876 517 c3 -10 9 -15 12 -12 3 3 0 11 -7 18 -10 9 -11 8 -5 -6z"/>
<path d="M4960 521 c0 -6 4 -13 10 -16 6 -3 7 1 4 9 -7 18 -14 21 -14 7z"/>
<path d="M5540 522 c0 -4 -12 -20 -27 -36 -14 -16 -20 -27 -13 -24 18 6 65 68
51 68 -6 0 -11 -3 -11 -8z"/>
<path d="M4560 495 c-7 -8 -9 -15 -4 -15 4 0 2 -6 -4 -12 -10 -10 -15 -10 -20
-1 -8 13 -52 6 -52 -8 0 -5 12 -6 27 -3 22 6 25 4 20 -10 -6 -15 -5 -15 18 0
14 9 25 22 25 30 0 8 6 11 15 8 11 -5 13 -2 9 10 -8 20 -18 20 -34 1z"/>
<path d="M5132 498 c-14 -14 -16 -32 -3 -24 5 4 11 1 13 -6 3 -8 6 -7 10 3 9
23 -5 42 -20 27z"/>
<path d="M3664 488 c-3 -5 -9 -6 -14 -3 -4 2 -10 -6 -12 -20 -4 -16 0 -25 11
-28 9 -3 2 -5 -15 -6 -48 -2 -94 -13 -94 -22 0 -5 89 -9 198 -8 205 1 231 16
37 21 -62 2 -98 7 -95 13 3 6 14 10 24 9 18 -1 18 0 2 12 -10 7 -13 15 -7 18
5 4 12 2 16 -4 3 -5 15 -15 26 -21 19 -9 19 -9 10 10 -6 11 -17 23 -24 28 -16
10 -57 11 -63 1z m16 -18 c0 -5 -4 -10 -10 -10 -5 0 -10 5 -10 10 0 6 5 10 10
10 6 0 10 -4 10 -10z"/>
<path d="M4995 472 c3 -8 0 -19 -7 -24 -10 -6 -9 -8 3 -8 8 0 21 6 28 13 8 8
11 8 9 1 -2 -7 0 -12 5 -13 49 -7 45 23 -5 36 -34 9 -38 8 -33 -5z"/>
<path d="M9400 470 c0 -19 3 -21 12 -12 9 9 9 15 0 24 -9 9 -12 7 -12 -12z"/>
<path d="M4845 470 c3 -5 8 -10 11 -10 2 0 4 5 4 10 0 6 -5 10 -11 10 -5 0 -7
-4 -4 -10z"/>
<path d="M4150 451 c0 -5 5 -13 10 -16 6 -3 10 -2 10 4 0 5 -4 13 -10 16 -5 3
-10 2 -10 -4z"/>
<path d="M4875 440 c3 -5 11 -10 16 -10 6 0 7 5 4 10 -3 6 -11 10 -16 10 -6 0
-7 -4 -4 -10z"/>
<path d="M4370 420 c0 -5 7 -10 15 -10 8 0 15 5 15 10 0 6 -7 10 -15 10 -8 0
-15 -4 -15 -10z"/>
<path d="M4940 420 c0 -5 5 -10 11 -10 5 0 7 5 4 10 -3 6 -8 10 -11 10 -2 0
-4 -4 -4 -10z"/>
<path d="M9125 420 c-3 -5 -1 -10 4 -10 6 0 11 5 11 10 0 6 -2 10 -4 10 -3 0
-8 -4 -11 -10z"/>
<path d="M6190 400 c0 -5 5 -10 10 -10 6 0 10 5 10 10 0 6 -4 10 -10 10 -5 0
-10 -4 -10 -10z"/>
<path d="M9410 400 c0 -5 5 -10 11 -10 5 0 7 5 4 10 -3 6 -8 10 -11 10 -2 0
-4 -4 -4 -10z"/>
<path d="M4915 390 c3 -5 11 -10 16 -10 6 0 7 5 4 10 -3 6 -11 10 -16 10 -6 0
-7 -4 -4 -10z"/>
<path d="M6228 383 c6 -2 18 -2 25 0 6 3 1 5 -13 5 -14 0 -19 -2 -12 -5z"/>
</g>
</svg>
